<?xml version="1.0" encoding="utf-8"?>
<!-- Generator: Adobe Illustrator 18.0.0, SVG Export Plug-In . SVG Version: 6.00 Build 0)  -->
<!DOCTYPE svg PUBLIC "-//W3C//DTD SVG 1.1//EN" "http://www.w3.org/Graphics/SVG/1.1/DTD/svg11.dtd">
<svg version="1.1" xmlns="http://www.w3.org/2000/svg" xmlns:xlink="http://www.w3.org/1999/xlink" x="0px" y="0px" width="2800px"
	 height="1800px" viewBox="0 0 2800 1800" enable-background="new 0 0 2800 1800" xml:space="preserve">
<g id="BACKGROUND">
	<g>
		<linearGradient id="SVGID_1_" gradientUnits="userSpaceOnUse" x1="1400" y1="1800" x2="1400" y2="-6.285427e-08">
			<stop  offset="1.075269e-02" style="stop-color:#232642"/>
			<stop  offset="1" style="stop-color:#6081B9"/>
		</linearGradient>
		<rect fill="url(#SVGID_1_)" width="2800" height="1800"/>
	</g>
</g>
<g id="OBJECTS">
	<g>
		<g opacity="0.5">
			<rect x="1609.8" y="230.7" fill="#231F20" width="1190.2" height="685.9"/>
			<polygon fill="#414042" points="2800,244 2800,216.3 1620.4,216.3 1620.4,216.3 1592.8,216.3 1592.8,930.9 1592.8,930.9 
				1620.4,930.9 2800,930.9 2800,903.3 1620.4,903.3 1620.4,587.4 2800,587.4 2800,559.8 1620.4,559.8 1620.4,244 			"/>
		</g>
		<path opacity="0.2" fill="#231F20" d="M1720,371.6V335h1.5v-49h-1.5h-32.8h-1.5v49h1.5v36.6c-13.8,2.4-24.2,14.4-24.2,28.9V550
			c0,4.4,3.5,7.9,7.9,7.9h16.3h32.8h16.3c4.4,0,7.9-3.5,7.9-7.9V400.5C1744.2,386.1,1733.8,374.1,1720,371.6z"/>
		<path opacity="0.2" fill="#231F20" d="M1828,371.6V335h1.5v-49h-1.5h-32.8h-1.5v49h1.5v36.6c-13.8,2.4-24.2,14.4-24.2,28.9V550
			c0,4.4,3.5,7.9,7.9,7.9h16.3h32.8h16.3c4.4,0,7.9-3.5,7.9-7.9V400.5C1852.2,386.1,1841.8,374.1,1828,371.6z"/>
		<path opacity="0.2" fill="#231F20" d="M2192,371.6V335h1.5v-49h-1.5h-32.8h-1.5v49h1.5v36.6c-13.8,2.4-24.2,14.4-24.2,28.9V550
			c0,4.4,3.5,7.9,7.9,7.9h16.3h32.8h16.3c4.4,0,7.9-3.5,7.9-7.9V400.5C2216.2,386.1,2205.8,374.1,2192,371.6z"/>
		<path opacity="0.2" fill="#231F20" d="M2300,371.6V335h1.5v-49h-1.5h-32.8h-1.5v49h1.5v36.6c-13.8,2.4-24.2,14.4-24.2,28.9V550
			c0,4.4,3.5,7.9,7.9,7.9h16.3h32.8h16.3c4.4,0,7.9-3.5,7.9-7.9V400.5C2324.2,386.1,2313.8,374.1,2300,371.6z"/>
		<path opacity="0.2" fill="#231F20" d="M2749.3,744.6V708h1.5v-49h-1.5h-32.8h-1.5v49h1.5v36.6c-13.8,2.4-24.2,14.4-24.2,28.9V923
			c0,4.4,3.5,7.9,7.9,7.9h16.3h32.8h16.3c4.4,0,7.9-3.5,7.9-7.9V773.5C2773.5,759.1,2763.1,747.1,2749.3,744.6z"/>
		<path opacity="0.2" fill="#231F20" d="M2310.3,744.6V708h1.5v-49h-1.5h-32.8h-1.5v49h1.5v36.6c-13.8,2.4-24.2,14.4-24.2,28.9V923
			c0,4.4,3.5,7.9,7.9,7.9h16.3h32.8h16.3c4.4,0,7.9-3.5,7.9-7.9V773.5C2334.5,759.1,2324.1,747.1,2310.3,744.6z"/>
	</g>
	<ellipse opacity="0.1" cx="422" cy="1648.9" rx="388" ry="71"/>
	<ellipse opacity="0.1" cx="1231.1" cy="1648.9" rx="388" ry="71"/>
	<ellipse opacity="0.1" cx="1933.5" cy="1648.9" rx="266.3" ry="71"/>
	<ellipse opacity="0.1" cx="2481" cy="1648.9" rx="266.3" ry="71"/>
	<g>
		<linearGradient id="SVGID_2_" gradientUnits="userSpaceOnUse" x1="810.0319" y1="1195.75" x2="2800" y2="1195.75">
			<stop  offset="0" style="stop-color:#B36448"/>
			<stop  offset="1" style="stop-color:#631821"/>
		</linearGradient>
		<rect x="810" y="854.8" fill="url(#SVGID_2_)" width="1990" height="682"/>
		<rect x="810" y="930.9" opacity="0.1" width="1990" height="384.7"/>
		<linearGradient id="SVGID_3_" gradientUnits="userSpaceOnUse" x1="781.5464" y1="1088.6996" x2="2800" y2="1088.6996">
			<stop  offset="0" style="stop-color:#FECB80"/>
			<stop  offset="0.67" style="stop-color:#A56535"/>
			<stop  offset="1" style="stop-color:#75471F"/>
		</linearGradient>
		<rect x="781.5" y="892.8" fill="url(#SVGID_3_)" width="2018.5" height="391.7"/>
		<rect x="781.5" y="892.8" opacity="0.1" width="2018.5" height="69.1"/>
		<linearGradient id="SVGID_4_" gradientUnits="userSpaceOnUse" x1="759.2377" y1="892.8323" x2="2800" y2="892.8323">
			<stop  offset="0" style="stop-color:#B36448"/>
			<stop  offset="1" style="stop-color:#631821"/>
		</linearGradient>
		<rect x="759.2" y="854.8" fill="url(#SVGID_4_)" width="2040.8" height="76.2"/>
	</g>
	<g>
		<linearGradient id="SVGID_5_" gradientUnits="userSpaceOnUse" x1="1237.8752" y1="1619.7882" x2="1331.6965" y2="1619.7882">
			<stop  offset="1.075269e-02" style="stop-color:#413F3F"/>
			<stop  offset="0.2456" style="stop-color:#3D3B3B"/>
			<stop  offset="0.5006" style="stop-color:#302E2E"/>
			<stop  offset="0.764" style="stop-color:#1A1919"/>
			<stop  offset="1" style="stop-color:#000000"/>
		</linearGradient>
		<polygon fill="url(#SVGID_5_)" points="1271.5,1586.4 1253.7,1627.7 1241,1644.7 1237.9,1656.5 1242.7,1667.3 1277.4,1670.4 
			1304.6,1668.1 1312.5,1662.5 1312.5,1651.4 1327.7,1644.1 1331.7,1637.9 1331.7,1580.8 1276.9,1569.2 		"/>
		<linearGradient id="SVGID_6_" gradientUnits="userSpaceOnUse" x1="1237.8752" y1="1651.4502" x2="1331.6965" y2="1651.4502">
			<stop  offset="0" style="stop-color:#FFFFFF"/>
			<stop  offset="1" style="stop-color:#B3C9D5"/>
		</linearGradient>
		<polygon fill="url(#SVGID_6_)" points="1331.7,1637.9 1331.7,1632.5 1326.4,1640 1314.2,1647.8 1304.9,1648.7 1270.3,1651 
			1239.3,1651 1237.9,1656.5 1242.7,1667.3 1277.4,1670.4 1304.6,1668.1 1312.5,1662.5 1312.5,1651.4 1327.7,1644.1 		"/>
		<linearGradient id="SVGID_7_" gradientUnits="userSpaceOnUse" x1="1405.7362" y1="1621.0599" x2="1523.8607" y2="1621.0599">
			<stop  offset="1.075269e-02" style="stop-color:#413F3F"/>
			<stop  offset="0.2456" style="stop-color:#3D3B3B"/>
			<stop  offset="0.5006" style="stop-color:#302E2E"/>
			<stop  offset="0.764" style="stop-color:#1A1919"/>
			<stop  offset="1" style="stop-color:#000000"/>
		</linearGradient>
		<polygon fill="url(#SVGID_7_)" points="1456,1575.1 1453.2,1586.7 1437.4,1609.6 1429.8,1624 1408,1648.6 1405.7,1659.1 
			1409.4,1669 1465.9,1669 1489.1,1662.7 1523.9,1642.1 1523.9,1628.8 1522.4,1624 1522.4,1596.9 1514.8,1582.2 1487.1,1573.2 		"/>
		<linearGradient id="SVGID_8_" gradientUnits="userSpaceOnUse" x1="1405.7362" y1="1648.8955" x2="1523.8607" y2="1648.8955">
			<stop  offset="0" style="stop-color:#FFFFFF"/>
			<stop  offset="1" style="stop-color:#B3C9D5"/>
		</linearGradient>
		<polygon fill="url(#SVGID_8_)" points="1409.4,1669 1465.9,1669 1489.1,1662.7 1523.9,1642.1 1523.9,1628.8 1492.8,1646.6 
			1480.1,1651 1455.8,1653.4 1408,1648.6 1405.7,1659.1 		"/>
		<linearGradient id="SVGID_9_" gradientUnits="userSpaceOnUse" x1="1253.7006" y1="1308.2751" x2="1527.2518" y2="1308.2751">
			<stop  offset="1.075269e-02" style="stop-color:#10395F"/>
			<stop  offset="0.9892" style="stop-color:#001135"/>
		</linearGradient>
		<polygon fill="url(#SVGID_9_)" points="1270.1,1045.3 1263.9,1086.5 1259.7,1196.6 1253.7,1301.3 1261.9,1326.9 1253.7,1446 
			1253.7,1516.6 1264.4,1534.7 1270.1,1563.6 1261.9,1566.9 1265.6,1582.2 1271.5,1586.4 1289.9,1576.6 1312.5,1580.5 
			1324.1,1587.9 1330.8,1586.2 1334,1563.6 1329.2,1559.3 1331.4,1552.5 1347.2,1543.2 1349.2,1524 1339.6,1520.3 1334,1481 
			1343.6,1426.2 1340.7,1361.2 1354.3,1335.8 1354.3,1309.8 1369,1285.5 1369,1229 1378.6,1204.7 1378.6,1188.3 1391,1206.9 
			1402.3,1283.8 1422.1,1355.6 1431.5,1375.3 1431.5,1490.6 1449.8,1520.6 1453.8,1555.1 1447,1556.2 1448.1,1577.4 1478.9,1582.5 
			1514.3,1589.6 1519.1,1585.3 1520.8,1568.1 1518.2,1562.7 1527.3,1551.1 1522.7,1536.1 1527.3,1516.4 1518.2,1391.7 
			1506.3,1345.4 1496.7,1323.9 1506.9,1305.8 1506.2,1223.3 1512.9,1048.9 1459.4,1027 		"/>
		<linearGradient id="SVGID_10_" gradientUnits="userSpaceOnUse" x1="1162.5167" y1="966.2653" x2="1299.6692" y2="966.2653">
			<stop  offset="0" style="stop-color:#FFDFB4"/>
			<stop  offset="0.2129" style="stop-color:#FEDAB0"/>
			<stop  offset="0.4519" style="stop-color:#FDCDA5"/>
			<stop  offset="0.7034" style="stop-color:#FAB693"/>
			<stop  offset="0.9622" style="stop-color:#F79779"/>
			<stop  offset="1" style="stop-color:#F69275"/>
		</linearGradient>
		<polygon fill="url(#SVGID_10_)" points="1242.8,787.4 1227.7,855.6 1207,897 1190.8,946.4 1176.1,1031.5 1167.8,1050.4 
			1165.5,1083.5 1162.5,1109.1 1164,1117.8 1179.2,1140.1 1192.5,1145.2 1196.8,1141.6 1202,1140.9 1206.6,1136.8 1215.8,1137.4 
			1221.9,1134.6 1232.6,1129.5 1233.8,1124.5 1230.8,1122.7 1217.2,1125.1 1209.8,1120.9 1200.7,1107.3 1200.7,1100.8 
			1212.3,1100.8 1220.9,1108.3 1218.2,1114.4 1219.6,1120.4 1223.3,1120.4 1234.5,1107.7 1233.8,1098.4 1217.2,1074.4 
			1205.1,1060.2 1205.1,1042.8 1248.8,961.1 1271.8,884.6 1299.7,824.3 1283.8,787.4 		"/>
		<linearGradient id="SVGID_11_" gradientUnits="userSpaceOnUse" x1="1231.4697" y1="847.4579" x2="1574.7277" y2="847.4579">
			<stop  offset="0" style="stop-color:#8359A5"/>
			<stop  offset="1" style="stop-color:#242278"/>
		</linearGradient>
		<polygon fill="url(#SVGID_11_)" points="1548.4,681.1 1525.4,657.4 1457.5,632.5 1452.6,635.5 1354.3,646.4 1273.7,680 
			1252.6,704.5 1234.9,758.7 1237.9,773.4 1231.5,788.9 1262,813 1285.4,817.5 1292.7,849.7 1285.9,890.4 1291.8,934.7 
			1284.2,947.9 1284.2,982.2 1271.8,999.5 1273.7,1023.6 1262,1055.6 1301.2,1058.7 1347.9,1056.4 1385.6,1062.4 1439.8,1051.9 
			1511.4,1062.4 1528,800.2 1574.7,773 1574.7,760.2 		"/>
		<linearGradient id="SVGID_12_" gradientUnits="userSpaceOnUse" x1="1286.4814" y1="557.893" x2="1452.6469" y2="557.893">
			<stop  offset="0" style="stop-color:#FFDFB4"/>
			<stop  offset="0.2129" style="stop-color:#FEDAB0"/>
			<stop  offset="0.4519" style="stop-color:#FDCDA5"/>
			<stop  offset="0.7034" style="stop-color:#FAB693"/>
			<stop  offset="0.9622" style="stop-color:#F79779"/>
			<stop  offset="1" style="stop-color:#F69275"/>
		</linearGradient>
		<polygon fill="url(#SVGID_12_)" points="1452.6,635.5 1440.2,628.4 1424.4,585.4 1438,536.8 1433.8,507.4 1422.5,484.8 
			1408.9,472.7 1404.8,462.2 1376.5,449 1346,451.6 1332.8,460.3 1321.1,462.6 1312.5,471.2 1305.3,471.2 1302.7,476.9 
			1293.3,476.9 1298.5,484 1286.5,481.4 1291.8,496.1 1305.3,507.4 1300.8,514.6 1300.6,547.2 1308,556.1 1306.7,569.5 
			1302.3,584.4 1305.8,588.7 1315.3,589.7 1316.3,597.4 1320,598.5 1322.5,605.4 1321.1,608.2 1321.9,612.9 1326.6,614.5 
			1329.3,626.8 1333.4,633 1342.2,633.3 1354.5,630.8 1354.3,646.4 1358.8,658.9 1381.8,666.8 1418.4,660.8 		"/>
		<linearGradient id="SVGID_13_" gradientUnits="userSpaceOnUse" x1="1431.4523" y1="961.4848" x2="1581.7925" y2="961.4848">
			<stop  offset="0" style="stop-color:#FFDFB4"/>
			<stop  offset="0.2129" style="stop-color:#FEDAB0"/>
			<stop  offset="0.4519" style="stop-color:#FDCDA5"/>
			<stop  offset="0.7034" style="stop-color:#FAB693"/>
			<stop  offset="0.9622" style="stop-color:#F79779"/>
			<stop  offset="1" style="stop-color:#F69275"/>
		</linearGradient>
		<polygon fill="url(#SVGID_13_)" points="1574.7,773 1565.4,760.7 1527.5,774.3 1503.2,798.9 1518.6,855.2 1528,881.6 
			1527.6,900.8 1512,945.8 1499,1000.1 1475.8,1049.8 1438.5,1068.4 1443.5,1078.5 1450.5,1082.9 1441.1,1113.9 1433.4,1135.4 
			1431.5,1151.2 1436.3,1153.8 1439.9,1150.7 1450.1,1123.8 1459.7,1111.7 1453.8,1135.4 1447.8,1158 1447.8,1162.3 1456.3,1162.3 
			1460,1156.1 1473,1122.5 1468.1,1142.9 1465.1,1155.1 1467.2,1159.8 1473.7,1158.1 1480.7,1142.7 1490.3,1116.3 1490.1,1132.9 
			1484.9,1147.8 1487.9,1151.3 1493.3,1149.5 1500.3,1135.7 1504.5,1114.4 1511.6,1098.6 1517.5,1056.8 1558.1,971.6 1579.5,903.7 
			1581.8,881.9 		"/>
		<linearGradient id="SVGID_14_" gradientUnits="userSpaceOnUse" x1="1286.4814" y1="517.1994" x2="1437.952" y2="517.1994">
			<stop  offset="1.075269e-02" style="stop-color:#413F3F"/>
			<stop  offset="0.2456" style="stop-color:#3D3B3B"/>
			<stop  offset="0.5006" style="stop-color:#302E2E"/>
			<stop  offset="0.764" style="stop-color:#1A1919"/>
			<stop  offset="1" style="stop-color:#000000"/>
		</linearGradient>
		<polygon fill="url(#SVGID_14_)" points="1424.4,585.4 1438,536.8 1433.8,507.4 1422.5,484.8 1408.9,472.7 1404.8,462.2 
			1376.5,449 1346,451.6 1332.8,460.3 1321.1,462.6 1312.5,471.2 1305.3,471.2 1302.7,476.9 1293.3,476.9 1298.5,484 1286.5,481.4 
			1291.8,496.1 1305.3,507.4 1331.7,498 1352.4,498 1352.4,519.5 1363.7,527 1369.6,553 1384.1,534.9 1393.1,533.4 1401,527.4 
			1412.7,527.4 1416.5,535.3 1416.5,560.2 		"/>
	</g>
	<g>
		<linearGradient id="SVGID_15_" gradientUnits="userSpaceOnUse" x1="948.5316" y1="1426.6519" x2="1167.2069" y2="1426.6519">
			<stop  offset="0" style="stop-color:#FFDFB4"/>
			<stop  offset="0.2129" style="stop-color:#FEDAB0"/>
			<stop  offset="0.4519" style="stop-color:#FDCDA5"/>
			<stop  offset="0.7034" style="stop-color:#FAB693"/>
			<stop  offset="0.9622" style="stop-color:#F79779"/>
			<stop  offset="1" style="stop-color:#F69275"/>
		</linearGradient>
		<polygon fill="url(#SVGID_15_)" points="1070.7,1248.7 1087.9,1326.3 1083.2,1336.2 1029.8,1392.7 988.4,1501.7 951.8,1572 
			948.5,1607.8 977.2,1621 1070.4,1639 1044,1606.8 1025,1578.8 1021.6,1547.4 1085.8,1448.3 1127.6,1384 1160.7,1347 
			1167.2,1326.5 1163.3,1301.3 1144.4,1214.3 1078.9,1214.3 		"/>
		<linearGradient id="SVGID_16_" gradientUnits="userSpaceOnUse" x1="939.806" y1="1599.761" x2="1101.712" y2="1599.761">
			<stop  offset="1.075269e-02" style="stop-color:#ED1C24"/>
			<stop  offset="1" style="stop-color:#440000"/>
		</linearGradient>
		<polygon fill="url(#SVGID_16_)" points="971.2,1559.8 959.8,1552.1 950.3,1557.3 939.8,1598.6 942.7,1614.8 1009,1638.3 
			1096.5,1647.4 1101.7,1638.3 1091,1629.8 1064.9,1624.5 1049.7,1608.3 1026.4,1622.5 1028.7,1626.8 1049,1616.6 1053.4,1622.7 
			1040.6,1631.3 1022.5,1630.9 948.9,1603.8 951.8,1584.7 969.2,1615.1 980.8,1618 953.5,1574.9 959,1560.4 981.5,1574.1 		"/>
		<linearGradient id="SVGID_17_" gradientUnits="userSpaceOnUse" x1="956.2875" y1="1433.0613" x2="1114.9618" y2="1433.0613">
			<stop  offset="0" style="stop-color:#FFDFB4"/>
			<stop  offset="0.2129" style="stop-color:#FEDAB0"/>
			<stop  offset="0.4519" style="stop-color:#FDCDA5"/>
			<stop  offset="0.7034" style="stop-color:#FAB693"/>
			<stop  offset="0.9622" style="stop-color:#F79779"/>
			<stop  offset="1" style="stop-color:#F69275"/>
		</linearGradient>
		<polygon fill="url(#SVGID_17_)" points="995.7,1222.1 999.3,1347.9 995.7,1369 979.3,1410.8 970.7,1450 967.7,1588.3 
			963.1,1614.5 956.3,1639.7 960.8,1657.8 977.8,1662.3 1017.7,1662.3 1051,1670.4 1103.3,1670.4 1115,1652.6 1081.7,1639.7 
			1037.7,1619 1026.4,1601.9 1022.2,1571.2 1039,1496.8 1055.2,1413.3 1059.5,1384 1071.5,1350 1079.7,1316.4 1102.6,1241.9 
			1109.9,1195.8 		"/>
		<linearGradient id="SVGID_18_" gradientUnits="userSpaceOnUse" x1="815.6027" y1="857.8804" x2="963.074" y2="857.8804">
			<stop  offset="0" style="stop-color:#FFDFB4"/>
			<stop  offset="0.2129" style="stop-color:#FEDAB0"/>
			<stop  offset="0.4519" style="stop-color:#FDCDA5"/>
			<stop  offset="0.7034" style="stop-color:#FAB693"/>
			<stop  offset="0.9622" style="stop-color:#F79779"/>
			<stop  offset="1" style="stop-color:#F69275"/>
		</linearGradient>
		<polygon fill="url(#SVGID_18_)" points="957.4,693.3 911,747.2 892.3,772.2 860,799.3 825.9,839.8 815.6,859.7 815.6,870.9 
			827.7,884.6 874.2,952.6 933.3,1008.9 950.1,1022.4 963.1,1005.9 917.8,941.6 885.8,885.4 876.8,868 877.4,860.5 954.3,791.4 		
			"/>
		<linearGradient id="SVGID_19_" gradientUnits="userSpaceOnUse" x1="897.4714" y1="1088.1897" x2="1168.9305" y2="1088.1897">
			<stop  offset="5.376344e-03" style="stop-color:#ED1846"/>
			<stop  offset="1" style="stop-color:#440000"/>
		</linearGradient>
		<polygon fill="url(#SVGID_19_)" points="955,962 955,979.8 942.4,988.8 919.4,1069.9 919.4,1115.2 897.5,1234.1 912.3,1244.4 
			947.5,1244.4 959.1,1232.8 1000.5,1235 1022,1226.8 1057.3,1230.7 1104.3,1219.4 1115.1,1228.5 1163.3,1221.2 1168.9,1216.4 
			1155.1,1169.9 1140.9,1084.2 1119.8,1011.3 1087.5,954.9 1072.4,931.9 983.6,940.2 		"/>
		<linearGradient id="SVGID_20_" gradientUnits="userSpaceOnUse" x1="915.2455" y1="827.6644" x2="1112.3765" y2="827.6644">
			<stop  offset="0" style="stop-color:#FFFFFF"/>
			<stop  offset="0.5108" style="stop-color:#FBC7BA"/>
			<stop  offset="1" style="stop-color:#F48590"/>
		</linearGradient>
		<polygon fill="url(#SVGID_20_)" points="957.4,693.3 936.1,718.1 918.8,758.7 915.2,813.3 937.9,931.9 955,962 977.3,954.6 
			1000.9,958.4 1010.9,952.3 1033.8,956.8 1081.4,949.4 1102,898.7 1112.4,838.9 1106.6,803.6 1091,758.4 1078.8,736.4 
			1063.9,728.1 1016.1,715.7 		"/>
		<linearGradient id="SVGID_21_" gradientUnits="userSpaceOnUse" x1="911.0443" y1="722.0431" x2="1110.7607" y2="722.0431">
			<stop  offset="1.075269e-02" style="stop-color:#413F3F"/>
			<stop  offset="0.2456" style="stop-color:#3D3B3B"/>
			<stop  offset="0.5006" style="stop-color:#302E2E"/>
			<stop  offset="0.764" style="stop-color:#1A1919"/>
			<stop  offset="1" style="stop-color:#000000"/>
		</linearGradient>
		<polygon fill="url(#SVGID_21_)" points="1081,524.1 1073.9,515.1 1056.1,512.1 1026.4,521.5 997,541.2 971.2,587.8 953.1,658.9 
			937.5,708.4 911,880.6 915.6,890.9 920.1,903.8 934,914.8 953.1,931.9 976.6,878 1006.4,770.4 1036.8,724.5 1079.1,684.4 
			1088.5,666.3 1081,698 1064.5,720.6 1039.7,736.4 1026.7,763.2 1042.6,738 1071.7,724.5 1085.6,709.3 1094,692.8 1094,705.1 
			1076.8,732.5 1104.6,701.5 1110.8,666.3 1110.8,605.2 1108.5,549.3 1092.7,527 		"/>
		<linearGradient id="SVGID_22_" gradientUnits="userSpaceOnUse" x1="1021.567" y1="859.3885" x2="1296.4193" y2="859.3885">
			<stop  offset="0" style="stop-color:#FFDFB4"/>
			<stop  offset="0.2129" style="stop-color:#FEDAB0"/>
			<stop  offset="0.4519" style="stop-color:#FDCDA5"/>
			<stop  offset="0.7034" style="stop-color:#FAB693"/>
			<stop  offset="0.9622" style="stop-color:#F79779"/>
			<stop  offset="1" style="stop-color:#F69275"/>
		</linearGradient>
		<polygon fill="url(#SVGID_22_)" points="1083.7,745.2 1068.1,739 1047.4,748.7 1023.5,794.9 1021.6,830.1 1031.6,840.2 
			1034.8,898 1048.7,962 1062.6,976.9 1080.1,979.8 1122.1,944.5 1173.1,883.1 1196.7,848.9 1206.7,841.8 1245.2,841.8 
			1256.2,835.2 1264.6,826.1 1280.3,815.6 1296.4,798.3 1293.5,794.6 1288,794.9 1274.1,806.4 1274.1,789.3 1265.6,776.2 
			1262.2,778.8 1261.8,783.1 1256.8,781.2 1254.9,783.6 1255.5,789.3 1252.1,788.3 1250.2,790.2 1253.9,805.7 1247,817.5 
			1239.2,817.5 1235.3,813.3 1258.4,813.3 1266.2,809 1266.2,803.5 1260.7,801.1 1237.8,801.1 1221.6,800.1 1205.8,804.8 
			1182.5,823.4 1126.9,878.6 1095.6,901.6 1094,847.3 1090.4,810.1 1094.4,768.2 1091,758.4 		"/>
		<linearGradient id="SVGID_23_" gradientUnits="userSpaceOnUse" x1="950.2551" y1="1629.8461" x2="1137.5834" y2="1629.8461">
			<stop  offset="1.075269e-02" style="stop-color:#ED1C24"/>
			<stop  offset="1" style="stop-color:#440000"/>
		</linearGradient>
		<path fill="url(#SVGID_23_)" d="M1125,1649.7l-53.5-14.8l-35,32l-18.7-4.5l-54.5-43.6l1.5-3.7h26.9l34.8-13.1v-7.7l-36.9,14.8
			l-24.8-1.3l2.2-7.1l23.3,0.6l34.6-11.6l-0.9-6.5l-22.5,7.8l-18.7,1.7l-19.2-3.9l-1.7,6.2l-4.3,19.8l-7.1,23.5l2.6,23.7l6.2,14.7
			h42.9l5.4-6.2l30.2,5.2h55.8l36.5-5.2l7.8-9.4L1125,1649.7z M960.8,1657.8l-4.5-18.1l4.3-14.5l32.2,36.2L960.8,1657.8z
			 M1061.2,1668.9l-12.7-1.1l24.8-25.4l16.6,6.5L1061.2,1668.9z"/>
	</g>
	<g>
		<linearGradient id="SVGID_24_" gradientUnits="userSpaceOnUse" x1="337.6144" y1="754.3391" x2="413.7045" y2="754.3391">
			<stop  offset="0" style="stop-color:#FFFFFF"/>
			<stop  offset="1" style="stop-color:#BCBABA"/>
		</linearGradient>
		<polygon fill="url(#SVGID_24_)" points="353.3,681.9 413.7,690.2 413.7,720.3 404,739.3 373.9,755.8 366.9,814.7 387.2,824.1 
			386.1,826.7 337.6,820.8 337.6,818.2 362.4,813.7 366.9,754.3 348.5,730.7 343.7,725.1 342.5,707 		"/>
		<linearGradient id="SVGID_25_" gradientUnits="userSpaceOnUse" x1="343.496" y1="744.375" x2="413.1102" y2="744.375">
			<stop  offset="5.376344e-03" style="stop-color:#ED1846"/>
			<stop  offset="1" style="stop-color:#440000"/>
		</linearGradient>
		<polygon fill="url(#SVGID_25_)" points="343.5,721.5 343.7,725.1 348.5,730.7 366.9,754.3 366,767.2 372.5,767.2 373.9,755.8 
			404,739.3 413.1,721.5 		"/>
		<linearGradient id="SVGID_26_" gradientUnits="userSpaceOnUse" x1="141.078" y1="1622.3529" x2="337.8811" y2="1622.3529">
			<stop  offset="1.075269e-02" style="stop-color:#413F3F"/>
			<stop  offset="0.2456" style="stop-color:#3D3B3B"/>
			<stop  offset="0.5006" style="stop-color:#302E2E"/>
			<stop  offset="0.764" style="stop-color:#1A1919"/>
			<stop  offset="1" style="stop-color:#000000"/>
		</linearGradient>
		<polygon fill="url(#SVGID_26_)" points="142.7,1599.6 142.7,1632.2 141.1,1637.2 141.9,1644.4 245.9,1648.1 308,1643.3 
			337.9,1632.2 336.8,1623.8 337.9,1618.2 332,1606.8 287.2,1606.8 250,1596.6 		"/>
		<linearGradient id="SVGID_27_" gradientUnits="userSpaceOnUse" x1="158.6783" y1="1640.0865" x2="341.3478" y2="1640.0865">
			<stop  offset="1.075269e-02" style="stop-color:#413F3F"/>
			<stop  offset="0.2456" style="stop-color:#3D3B3B"/>
			<stop  offset="0.5006" style="stop-color:#302E2E"/>
			<stop  offset="0.764" style="stop-color:#1A1919"/>
			<stop  offset="1" style="stop-color:#000000"/>
		</linearGradient>
		<polygon fill="url(#SVGID_27_)" points="164.3,1618 161.9,1628.9 161.9,1651.8 158.7,1656.4 158.7,1669.7 200.8,1674 
			214.1,1671.8 233.3,1676.6 301.3,1676.6 339.5,1669.2 339.5,1660.6 341.3,1654 336.5,1642.8 303.7,1639 274.9,1623.8 
			260.3,1605.2 211.5,1603.6 		"/>
		<linearGradient id="SVGID_28_" gradientUnits="userSpaceOnUse" x1="135.1223" y1="1360.8821" x2="254.9464" y2="1360.8821">
			<stop  offset="1.075269e-02" style="stop-color:#10395F"/>
			<stop  offset="0.9892" style="stop-color:#001135"/>
		</linearGradient>
		<polygon fill="url(#SVGID_28_)" points="168,1116.6 172.3,1218.5 162.7,1259.5 157.9,1338.5 152.5,1374.7 155.2,1530 
			135.1,1576.9 138.1,1605.2 216,1598.8 245.3,1507 254.9,1304.3 234.7,1116.6 		"/>
		<linearGradient id="SVGID_29_" gradientUnits="userSpaceOnUse" x1="135.1223" y1="1326.126" x2="316.8141" y2="1326.126">
			<stop  offset="1.075269e-02" style="stop-color:#10395F"/>
			<stop  offset="0.9892" style="stop-color:#001135"/>
		</linearGradient>
		<polygon fill="url(#SVGID_29_)" points="135.1,1054 152.2,1118.7 178.5,1162.8 197.7,1243.9 214.1,1283 207.7,1334.9 
			214.1,1361.2 203.4,1383.3 192,1509.9 182.1,1532.6 178.1,1564.6 161.4,1574.6 162.1,1592 155.4,1606.6 157.5,1621.2 
			199.1,1632.2 237.9,1615.1 270.6,1611.2 273.1,1598.8 266.3,1581.3 277,1573.9 290.1,1526.2 294.4,1447.8 301.3,1406.2 
			316.8,1363.5 316.8,1245.1 303.5,1144.9 311.5,1095.8 310.4,1024.9 206.9,1020.1 		"/>
		<linearGradient id="SVGID_30_" gradientUnits="userSpaceOnUse" x1="183.4786" y1="543.0024" x2="318.6808" y2="543.0024">
			<stop  offset="0" style="stop-color:#FFDFB4"/>
			<stop  offset="0.2129" style="stop-color:#FEDAB0"/>
			<stop  offset="0.4519" style="stop-color:#FDCDA5"/>
			<stop  offset="0.7034" style="stop-color:#FAB693"/>
			<stop  offset="0.9622" style="stop-color:#F79779"/>
			<stop  offset="1" style="stop-color:#F69275"/>
		</linearGradient>
		<polygon fill="url(#SVGID_30_)" points="230.9,444.1 210.1,451.3 187.5,476.1 183.5,501.1 193.1,548.1 192,579.5 255.7,641.9 
			257.1,609.4 282.4,618.7 295.5,615.8 296.8,597.9 302.4,592.6 302.4,589.1 306.9,583.8 306.9,575.8 315.7,575.5 318.7,569.4 
			312.5,546.2 313.1,541.1 318.7,531.8 316.8,500.3 311.5,491.5 311.2,482.2 288,457.1 253.9,444.1 		"/>
		<linearGradient id="SVGID_31_" gradientUnits="userSpaceOnUse" x1="100.2773" y1="820.829" x2="332.1032" y2="820.829">
			<stop  offset="0" style="stop-color:#00B59E"/>
			<stop  offset="1" style="stop-color:#00557D"/>
		</linearGradient>
		<polygon fill="url(#SVGID_31_)" points="183.5,571.3 172.5,589.4 174.9,591.5 145.1,618.2 108.3,680.9 100.3,727.8 100.3,794.5 
			105.6,828.6 106,922.5 123,1070.4 133,1070.4 212.6,1039.1 315,1046.9 319.3,1019.2 332.1,1037 328.5,966.6 317.2,919.3 
			296.5,756.1 266,672.9 266.7,655.8 270.9,636.2 256.5,622.4 255.7,641.9 251.1,627.7 221.2,593.6 		"/>
		<linearGradient id="SVGID_32_" gradientUnits="userSpaceOnUse" x1="114.4109" y1="795.8065" x2="413.7045" y2="795.8065">
			<stop  offset="0" style="stop-color:#FFDFB4"/>
			<stop  offset="0.2129" style="stop-color:#FEDAB0"/>
			<stop  offset="0.4519" style="stop-color:#FDCDA5"/>
			<stop  offset="0.7034" style="stop-color:#FAB693"/>
			<stop  offset="0.9622" style="stop-color:#F79779"/>
			<stop  offset="1" style="stop-color:#F69275"/>
		</linearGradient>
		<polygon fill="url(#SVGID_32_)" points="114.4,811.8 121.6,854.2 137.9,885.7 151.7,887.8 223.5,864.9 314,806.2 326.8,800.9 
			348.5,798.7 371.6,790.2 371.6,780.6 376.2,777.4 376.2,767.1 390.4,762.2 390.4,749.7 413.7,737.9 413.7,728.7 381.3,736.7 
			342.9,739.7 335.5,736.2 344,722.5 346,714.3 342.9,703.8 337.3,703.8 332.1,717.1 318.6,732.6 305.4,762.5 294.6,771.5 
			231.5,803.4 186.3,809.4 181.5,803.4 142.6,804.3 		"/>
		<linearGradient id="SVGID_33_" gradientUnits="userSpaceOnUse" x1="183.4786" y1="497.8461" x2="311.4807" y2="497.8461">
			<stop  offset="1.075269e-02" style="stop-color:#413F3F"/>
			<stop  offset="0.2456" style="stop-color:#3D3B3B"/>
			<stop  offset="0.5006" style="stop-color:#302E2E"/>
			<stop  offset="0.764" style="stop-color:#1A1919"/>
			<stop  offset="1" style="stop-color:#000000"/>
		</linearGradient>
		<polygon fill="url(#SVGID_33_)" points="311.5,491.5 311.2,482.2 288,457.1 253.9,444.1 230.9,444.1 210.1,451.3 187.5,476.1 
			183.5,501.1 193.1,548.1 206.2,524.6 216.2,522.5 233.3,535.3 238.2,551.6 247.8,528.9 267.7,520.3 267.7,491.5 292.3,493.7 		"/>
	</g>
	<g>
		<linearGradient id="SVGID_34_" gradientUnits="userSpaceOnUse" x1="447.6161" y1="806.6955" x2="515.3506" y2="806.6955">
			<stop  offset="0" style="stop-color:#FFFFFF"/>
			<stop  offset="1" style="stop-color:#BCBABA"/>
		</linearGradient>
		<polygon fill="url(#SVGID_34_)" points="457.5,737.6 506.3,737.6 515.4,754.2 515.4,778.2 503.6,793.9 485,802.5 485,867.3 
			504.7,872.3 504.7,875.8 457.5,875.8 457.5,871.8 479.1,866.2 479.1,802.2 457.5,790.7 447.6,777.2 447.6,755.7 		"/>
		<linearGradient id="SVGID_35_" gradientUnits="userSpaceOnUse" x1="447.6161" y1="785.625" x2="515.3506" y2="785.625">
			<stop  offset="5.376344e-03" style="stop-color:#ED1846"/>
			<stop  offset="1" style="stop-color:#440000"/>
		</linearGradient>
		<polygon fill="url(#SVGID_35_)" points="447.6,771.2 447.6,777.2 457.5,790.7 474.9,800 490.4,800 503.6,793.9 515.4,778.2 
			515.4,771.2 		"/>
		<linearGradient id="SVGID_36_" gradientUnits="userSpaceOnUse" x1="475.7853" y1="1502.6049" x2="637.6496" y2="1502.6049">
			<stop  offset="0" style="stop-color:#FFDFB4"/>
			<stop  offset="0.2129" style="stop-color:#FEDAB0"/>
			<stop  offset="0.4519" style="stop-color:#FDCDA5"/>
			<stop  offset="0.7034" style="stop-color:#FAB693"/>
			<stop  offset="0.9622" style="stop-color:#F79779"/>
			<stop  offset="1" style="stop-color:#F69275"/>
		</linearGradient>
		<polygon fill="url(#SVGID_36_)" points="563,1399.8 574.6,1497.8 574.6,1548.4 563,1574.3 509.6,1612.2 475.8,1619.1 
			475.8,1630.1 622.4,1630.1 634,1607.6 637.6,1571 631.8,1532.5 631.8,1456.9 602.6,1375.1 		"/>
		<linearGradient id="SVGID_37_" gradientUnits="userSpaceOnUse" x1="468.5404" y1="1602.67" x2="644.9862" y2="1602.67">
			<stop  offset="1.075269e-02" style="stop-color:#413F3F"/>
			<stop  offset="0.2456" style="stop-color:#3D3B3B"/>
			<stop  offset="0.5006" style="stop-color:#302E2E"/>
			<stop  offset="0.764" style="stop-color:#1A1919"/>
			<stop  offset="1" style="stop-color:#000000"/>
		</linearGradient>
		<polygon fill="url(#SVGID_37_)" points="637.4,1569.1 556.7,1611.3 527.2,1611.3 488,1613.2 481.4,1624.2 468.5,1628.6 
			470.7,1636.3 553,1636.3 586.3,1630.1 610.9,1630.1 615.6,1636.3 637.4,1636.3 645,1608.8 645,1569.1 		"/>
		<linearGradient id="SVGID_38_" gradientUnits="userSpaceOnUse" x1="597.1147" y1="1522.1844" x2="702.9456" y2="1522.1844">
			<stop  offset="0" style="stop-color:#FFDFB4"/>
			<stop  offset="0.2129" style="stop-color:#FEDAB0"/>
			<stop  offset="0.4519" style="stop-color:#FDCDA5"/>
			<stop  offset="0.7034" style="stop-color:#FAB693"/>
			<stop  offset="0.9622" style="stop-color:#F79779"/>
			<stop  offset="1" style="stop-color:#F69275"/>
		</linearGradient>
		<polygon fill="url(#SVGID_38_)" points="597.1,1419.1 624.8,1483.3 637.6,1516.7 645,1567.3 645,1608.8 632.5,1637.4 
			628.1,1660.1 676.2,1660.1 697.8,1634.1 702.9,1604.7 688.6,1561.4 683.5,1454.7 676.9,1407.4 666.3,1384.3 620.8,1396 		"/>
		<linearGradient id="SVGID_39_" gradientUnits="userSpaceOnUse" x1="485.5723" y1="1205.5018" x2="611.6188" y2="1205.5018">
			<stop  offset="0" style="stop-color:#00B9F2"/>
			<stop  offset="1" style="stop-color:#00346C"/>
		</linearGradient>
		<polygon fill="url(#SVGID_39_)" points="496.6,1002.7 485.6,1032.7 491.1,1085.3 500.2,1118.4 510.8,1189.1 531.1,1279.5 
			534.8,1303.8 541.8,1319.3 541.8,1329.4 550.8,1345.9 550.8,1375.3 557.2,1408.3 611.6,1408.3 611.6,1002.7 		"/>
		<linearGradient id="SVGID_40_" gradientUnits="userSpaceOnUse" x1="519.884" y1="1209.9463" x2="678.9976" y2="1209.9463">
			<stop  offset="0" style="stop-color:#00B9F2"/>
			<stop  offset="1" style="stop-color:#00346C"/>
		</linearGradient>
		<polygon fill="url(#SVGID_40_)" points="519.9,992.9 530,1067 541.8,1110.7 538,1240.3 538.6,1277.1 541.8,1310.7 558.8,1347.5 
			562.6,1363 574.8,1381.7 579.1,1398.7 590.3,1427 623.4,1423.3 668.2,1408.3 672.4,1400.3 654.3,1358.2 637.8,1333.1 
			636.7,1318.2 628.7,1310.7 623.4,1283.5 647,1175.6 656.2,1133.7 672.4,1086.7 679,1041.9 676.2,1024.9 628.5,992.9 		"/>
		<linearGradient id="SVGID_41_" gradientUnits="userSpaceOnUse" x1="496.5947" y1="844.3405" x2="699.2646" y2="844.3405">
			<stop  offset="0" style="stop-color:#F48590"/>
			<stop  offset="1" style="stop-color:#ED1C24"/>
		</linearGradient>
		<polygon fill="url(#SVGID_41_)" points="583.7,694.2 563.4,708.6 554.3,734.5 538.3,758.5 520.4,779.8 514.6,793.4 524,845 
			519,897.6 502.6,965.9 496.6,990.7 496.6,1002.7 515.6,1023.3 572.2,1019.5 626.6,1023.3 661.2,1028.6 676.2,1024.9 663.4,977.9 
			651.1,926.7 649.5,890.5 671.4,841.9 699.3,747.9 699.3,681.9 669.2,660.1 623.7,670.7 		"/>
		<linearGradient id="SVGID_42_" gradientUnits="userSpaceOnUse" x1="535.3509" y1="643.3596" x2="712.0648" y2="643.3596">
			<stop  offset="0" style="stop-color:#FFDFB4"/>
			<stop  offset="0.2129" style="stop-color:#FEDAB0"/>
			<stop  offset="0.4519" style="stop-color:#FDCDA5"/>
			<stop  offset="0.7034" style="stop-color:#FAB693"/>
			<stop  offset="0.9622" style="stop-color:#F79779"/>
			<stop  offset="1" style="stop-color:#F69275"/>
		</linearGradient>
		<polygon fill="url(#SVGID_42_)" points="538.9,513.9 535.4,521 538.9,532.4 538.9,559.5 542.8,574.7 536.4,596.6 537.7,601.4 
			547.1,603.2 547.1,610.6 550.6,613.5 550.6,616.9 548.9,619.4 548.9,623.4 552.2,625.8 552.2,643.5 559.5,648.7 573,646.9 
			586.7,640.9 595.3,655.4 595.3,682.5 583.7,694.2 565.3,730.5 561,745.1 581.9,739.4 613.6,707 621.4,688.9 652.7,671.4 
			676.2,683.9 691.4,715.2 699.3,747.9 699.3,804.8 712.1,771 707.1,739 709.2,713.8 701.4,672.9 703.9,659.4 688.6,627 
			679.4,548.8 661.2,508.2 617.5,481.9 588,481.9 560.2,494.7 		"/>
		<linearGradient id="SVGID_43_" gradientUnits="userSpaceOnUse" x1="623.3431" y1="1625.0806" x2="711.3826" y2="1625.0806">
			<stop  offset="1.075269e-02" style="stop-color:#413F3F"/>
			<stop  offset="0.2456" style="stop-color:#3D3B3B"/>
			<stop  offset="0.5006" style="stop-color:#302E2E"/>
			<stop  offset="0.764" style="stop-color:#1A1919"/>
			<stop  offset="1" style="stop-color:#000000"/>
		</linearGradient>
		<path fill="url(#SVGID_43_)" d="M699.6,1581.2h-4.5l3.7,21.4l-5.5,30.3l-12.1,7.3H645l-12.5-2.9l-9.2,19.4l4.6,12.1h44.6l19.8-8.4
			l5.1-11.7l13.9-28.2v-15L699.6,1581.2z M630.1,1659v-5.1l14.9-5.1l18.7,4.4l2.5,5.8H630.1z"/>
		<linearGradient id="SVGID_44_" gradientUnits="userSpaceOnUse" x1="535.3509" y1="643.0802" x2="712.0649" y2="643.0802">
			<stop  offset="1.075269e-02" style="stop-color:#413F3F"/>
			<stop  offset="0.2456" style="stop-color:#3D3B3B"/>
			<stop  offset="0.5006" style="stop-color:#302E2E"/>
			<stop  offset="0.764" style="stop-color:#1A1919"/>
			<stop  offset="1" style="stop-color:#000000"/>
		</linearGradient>
		<polygon fill="url(#SVGID_44_)" points="691.4,715.2 699.3,747.9 699.3,804.2 699.5,804.2 712.1,771 707.1,739 709.2,713.8 
			701.4,672.9 703.9,659.4 688.6,627 679.4,548.8 661.2,508.2 617.5,481.9 588,481.9 560.2,494.7 538.9,513.9 535.4,521 
			538.9,532.4 557.4,523.5 586.6,541.7 586.6,549.1 602.9,562.3 608.2,576.2 623.7,564.8 630.3,566.6 639.2,589 627.8,598.9 
			633.8,607.8 633.8,641.6 639.2,663.6 652.7,671.4 676.2,683.9 		"/>
		<linearGradient id="SVGID_45_" gradientUnits="userSpaceOnUse" x1="448.7717" y1="825.2291" x2="715.6204" y2="825.2291">
			<stop  offset="0" style="stop-color:#FFDFB4"/>
			<stop  offset="0.2129" style="stop-color:#FEDAB0"/>
			<stop  offset="0.4519" style="stop-color:#FDCDA5"/>
			<stop  offset="0.7034" style="stop-color:#FAB693"/>
			<stop  offset="0.9622" style="stop-color:#F79779"/>
			<stop  offset="1" style="stop-color:#F69275"/>
		</linearGradient>
		<polygon fill="url(#SVGID_45_)" points="657.3,724.8 637.6,733.3 631.7,773 658.7,855.6 597.9,839.3 551.4,817.2 521.1,787 
			492.7,773.1 470.5,766.7 466.5,769.8 466.5,775.1 482.7,781.9 500.9,793.9 468.5,787 453.2,782.9 448.8,787 448.8,790.9 
			470.1,800.5 468.3,804.8 472.4,811.9 472.6,816.9 496.6,831.5 519.9,846.2 540.4,852.1 611.4,894.7 664.4,917.1 702.8,925.7 
			713.5,913.6 715.6,865.2 703.5,782 699.3,747.9 684,731.2 		"/>
	</g>
	<g>
		<radialGradient id="SVGID_46_" cx="2435.6882" cy="608.2897" r="60.4486" gradientUnits="userSpaceOnUse">
			<stop  offset="0" style="stop-color:#FFDCB6"/>
			<stop  offset="4.898137e-02" style="stop-color:#FFD5A7"/>
			<stop  offset="0.199" style="stop-color:#FFC17D"/>
			<stop  offset="0.3524" style="stop-color:#FFB05B"/>
			<stop  offset="0.5077" style="stop-color:#FFA340"/>
			<stop  offset="0.6655" style="stop-color:#FF9A2D"/>
			<stop  offset="0.8275" style="stop-color:#FF9522"/>
			<stop  offset="1" style="stop-color:#FF931E"/>
		</radialGradient>
		<polygon fill="url(#SVGID_46_)" points="2513.5,576.9 2514.4,583.2 2515.2,589.8 2508.6,593.5 2509.1,595.4 2459.3,612.4 
			2453.3,620.4 2363.4,639.7 2356.2,600.2 2446.2,581.9 2456.1,586 		"/>
		<linearGradient id="SVGID_47_" gradientUnits="userSpaceOnUse" x1="2369.0586" y1="658.2015" x2="2441.2529" y2="658.2015">
			<stop  offset="0" style="stop-color:#FFDFB4"/>
			<stop  offset="0.2129" style="stop-color:#FEDAB0"/>
			<stop  offset="0.4519" style="stop-color:#FDCDA5"/>
			<stop  offset="0.7034" style="stop-color:#FAB693"/>
			<stop  offset="0.9622" style="stop-color:#F79779"/>
			<stop  offset="1" style="stop-color:#F69275"/>
		</linearGradient>
		<polygon fill="url(#SVGID_47_)" points="2430.6,715.6 2419.4,666.2 2421.3,647.1 2441.3,614.7 2441.3,602.6 2428.7,578 
			2423.4,578 2416.7,571.6 2410.7,571.6 2373.5,588.4 2372.5,591.5 2369.1,593.5 2371,599.5 2384.2,600.6 2386.3,606 2376.6,635.7 
			2379.3,650.7 2382.4,663.1 2380.5,744.8 		"/>
		<linearGradient id="SVGID_48_" gradientUnits="userSpaceOnUse" x1="2341.7681" y1="1589.5349" x2="2522.9312" y2="1589.5349">
			<stop  offset="0" style="stop-color:#BC966D"/>
			<stop  offset="1" style="stop-color:#7C5333"/>
		</linearGradient>
		<polygon fill="url(#SVGID_48_)" points="2507.8,1555.3 2516.2,1560.2 2522,1580.9 2522,1594.2 2522.9,1613.4 2517.7,1619.8 
			2471.4,1619.8 2469.9,1612.6 2425,1623.7 2382,1623.7 2349.8,1614.7 2341.8,1605.6 2345.1,1590.7 2369.4,1584.6 2407,1577.2 
			2410.3,1572.4 2437.8,1555.5 		"/>
		<linearGradient id="SVGID_49_" gradientUnits="userSpaceOnUse" x1="2442.0271" y1="1620.7269" x2="2629.6741" y2="1620.7269">
			<stop  offset="0" style="stop-color:#BC966D"/>
			<stop  offset="1" style="stop-color:#7C5333"/>
		</linearGradient>
		<polygon fill="url(#SVGID_49_)" points="2616.6,1571.1 2624.2,1584.4 2627.4,1619.3 2629.7,1622.5 2629.7,1641.6 2616.6,1648.6 
			2588.7,1652.1 2584.4,1645.7 2548.4,1664.9 2530.4,1670.4 2482.5,1670.4 2454.8,1665.1 2442,1655.3 2442,1643.5 2453.4,1630.9 
			2507.1,1610 2508.2,1604.8 2539.7,1579.5 		"/>
		<linearGradient id="SVGID_50_" gradientUnits="userSpaceOnUse" x1="2424.9946" y1="1335.6848" x2="2557.3831" y2="1335.6848">
			<stop  offset="1.075269e-02" style="stop-color:#10395F"/>
			<stop  offset="0.9892" style="stop-color:#001135"/>
		</linearGradient>
		<polygon fill="url(#SVGID_50_)" points="2534.2,1238.9 2517.3,1281.9 2507.4,1299.3 2512.1,1311.5 2510.9,1333 2520.8,1416 
			2510.9,1529.4 2515.6,1543.9 2516.2,1560.2 2484.8,1579.3 2465.1,1579.3 2437.8,1555.5 2447.1,1543.3 2444.7,1535.8 
			2449.4,1524.2 2447.1,1513.1 2446.7,1485.8 2437.4,1393.4 2432.3,1342 2425,1305.7 2425,1274.4 2447.6,1189 2468,1092 
			2508.6,1092 2557.4,1139.1 		"/>
		<linearGradient id="SVGID_51_" gradientUnits="userSpaceOnUse" x1="2494.092" y1="1353.4999" x2="2657.6421" y2="1353.4999">
			<stop  offset="1.075269e-02" style="stop-color:#10395F"/>
			<stop  offset="0.9892" style="stop-color:#001135"/>
		</linearGradient>
		<polygon fill="url(#SVGID_51_)" points="2657.6,1140.4 2635.6,1191.5 2632.9,1273.8 2629.1,1306 2631.7,1314.7 2629.1,1328.7 
			2636.4,1352.2 2635.6,1375.4 2640.2,1414.9 2634.4,1493.9 2635.8,1521.4 2629.1,1529 2622.7,1576.6 2611.7,1595.5 2581.8,1610 
			2560.6,1603.9 2539.7,1579.5 2547.2,1567.3 2547.2,1554.8 2555.1,1543.2 2551.3,1519.1 2555.4,1497.9 2563.2,1486.3 
			2559.1,1402.1 2553.3,1389.3 2553.3,1375.2 2539.7,1357.4 2534.2,1332.4 2537.1,1313.3 2519.1,1262.8 2494.1,1148.4 
			2570.7,1100.2 2632.9,1097 		"/>
		<linearGradient id="SVGID_52_" gradientUnits="userSpaceOnUse" x1="2504.5437" y1="569.4587" x2="2674.0938" y2="569.4587">
			<stop  offset="0" style="stop-color:#FFDFB4"/>
			<stop  offset="0.2129" style="stop-color:#FEDAB0"/>
			<stop  offset="0.4519" style="stop-color:#FDCDA5"/>
			<stop  offset="0.7034" style="stop-color:#FAB693"/>
			<stop  offset="0.9622" style="stop-color:#F79779"/>
			<stop  offset="1" style="stop-color:#F69275"/>
		</linearGradient>
		<polygon fill="url(#SVGID_52_)" points="2553,488.2 2553,480.6 2565.8,464.4 2599.5,462.6 2635.5,471 2666.5,498.6 2674.1,532.6 
			2671.8,562.2 2657.3,591.8 2634,624.6 2615.4,676.3 2547.2,676.3 2541.4,644.7 2535.3,638 2508.9,628.7 2504.5,619.1 
			2511.5,606.3 2508.6,593.5 2515.2,589.8 2514.4,583.2 2517.1,576 2507.8,569.5 2507.6,564.2 2528,539.1 2527.6,521.8 
			2546.5,493.8 		"/>
		<linearGradient id="SVGID_53_" gradientUnits="userSpaceOnUse" x1="2553.0281" y1="540.2042" x2="2674.0938" y2="540.2042">
			<stop  offset="1.075269e-02" style="stop-color:#413F3F"/>
			<stop  offset="0.2456" style="stop-color:#3D3B3B"/>
			<stop  offset="0.5006" style="stop-color:#302E2E"/>
			<stop  offset="0.764" style="stop-color:#1A1919"/>
			<stop  offset="1" style="stop-color:#000000"/>
		</linearGradient>
		<polygon fill="url(#SVGID_53_)" points="2553,480.6 2565.8,464.4 2599.5,462.6 2635.5,471 2666.5,498.6 2674.1,532.6 
			2671.8,562.2 2657.3,591.8 2638.9,617.8 2629.1,605.7 2633.2,573.3 2628.5,554.9 2616.6,542.9 2601.7,546.8 2583.5,573.3 
			2587,535.2 2575.4,519.1 2583.1,500.2 2553,488.2 		"/>
		<linearGradient id="SVGID_54_" gradientUnits="userSpaceOnUse" x1="2373.5103" y1="899.0748" x2="2684.5457" y2="899.0748">
			<stop  offset="0" style="stop-color:#FFFFFF"/>
			<stop  offset="2.258801e-02" style="stop-color:#FCFDFE"/>
			<stop  offset="1" style="stop-color:#84AADA"/>
		</linearGradient>
		<polygon fill="url(#SVGID_54_)" points="2621.8,626.4 2638.4,626.4 2636.4,649.6 2651.7,667 2681.6,744.2 2674.1,836 2674.1,876 
			2670,910.3 2677,932.2 2674.7,948.8 2678.2,971.7 2674.7,989.8 2681.6,1029 2681.6,1069.4 2684.5,1090.9 2656.5,1171.8 
			2641,1152.4 2639.1,1132.7 2605.4,1108.7 2577.1,1120.3 2571.3,1131.9 2502.4,1169.1 2487.7,1166.8 2484.2,1110 2472,1106 
			2465.6,1125.7 2454,1101.3 2463.3,1025.9 2466.8,905.7 2480.2,830.8 2444.7,830.8 2406.4,818 2398.9,804 2384.9,804 2384.9,783.5 
			2373.5,776.2 2373.5,742.9 2409.9,701.1 2428.1,701.1 2458.7,726.2 2458.3,733.6 2482.7,734.8 2513.3,718.9 2525.3,674.4 
			2576,642.6 		"/>
	</g>
	<g>
		<linearGradient id="SVGID_55_" gradientUnits="userSpaceOnUse" x1="1946.2579" y1="1611.4246" x2="2126.1162" y2="1611.4246">
			<stop  offset="0" style="stop-color:#BC966D"/>
			<stop  offset="1" style="stop-color:#7C5333"/>
		</linearGradient>
		<polygon fill="url(#SVGID_55_)" points="2017.4,1566.2 2029.2,1571.8 2050.9,1592.3 2063.9,1608.9 2096.7,1620.9 2113.1,1620.9 
			2126.1,1629.9 2126.1,1643.4 2112.1,1650.6 2071.7,1656.6 2047.3,1656.6 2008.5,1642.9 1995.7,1639.3 1993.5,1644.8 
			1957.1,1641.7 1948.2,1639 1946.3,1632 1946.3,1617.1 1948.2,1615.2 1948.2,1591.1 1951.3,1585.3 1973.5,1573.7 		"/>
		<linearGradient id="SVGID_56_" gradientUnits="userSpaceOnUse" x1="1746.6298" y1="1625.6493" x2="1867.6603" y2="1625.6493">
			<stop  offset="0" style="stop-color:#BC966D"/>
			<stop  offset="1" style="stop-color:#7C5333"/>
		</linearGradient>
		<polygon fill="url(#SVGID_56_)" points="1814.1,1585.3 1837.5,1625.5 1852.7,1639.5 1864,1645.5 1865.7,1654.9 1867.7,1661.2 
			1860.4,1668 1829.3,1670.4 1798,1670.4 1778,1664.6 1763.5,1650.6 1756,1650.6 1748.3,1645.1 1746.6,1622.6 1749,1619.3 
			1749,1607.2 1760.6,1580.9 1812,1580.9 		"/>
		<linearGradient id="SVGID_57_" gradientUnits="userSpaceOnUse" x1="1924.8806" y1="1329.1002" x2="2049.4473" y2="1329.1002">
			<stop  offset="1.075269e-02" style="stop-color:#10395F"/>
			<stop  offset="0.9892" style="stop-color:#001135"/>
		</linearGradient>
		<polygon fill="url(#SVGID_57_)" points="2043.2,1072.9 2049.4,1133.7 2046.3,1221.5 2034.5,1278.8 2036.4,1291.5 2030.6,1322.4 
			2024.5,1333.6 2027.4,1350 2023.2,1363.2 2023.2,1420.8 2020.7,1518.2 2025.5,1530.4 2026.1,1547.1 2029.7,1550.8 2029.2,1571.8 
			1986,1585.3 1968.2,1583.1 1951.3,1585.3 1943.8,1564.3 1947.5,1559.5 1943.8,1530.5 1943.8,1467 1936.1,1385.1 1938.1,1357.1 
			1934.8,1329.1 1940.6,1308.2 1938.1,1280.3 1932,1226.9 1924.9,1196.1 1924.9,1072.9 		"/>
		<linearGradient id="SVGID_58_" gradientUnits="userSpaceOnUse" x1="1750.3265" y1="1312.0225" x2="1998.3348" y2="1312.0225">
			<stop  offset="1.075269e-02" style="stop-color:#10395F"/>
			<stop  offset="0.9892" style="stop-color:#001135"/>
		</linearGradient>
		<polygon fill="url(#SVGID_58_)" points="1998.3,1072.9 1943.8,1157.8 1903.6,1250.4 1885,1305.8 1877.3,1317.4 1871.5,1341 
			1859.9,1354.1 1845.5,1425.4 1842.1,1459.7 1834.4,1474.6 1825.7,1565.7 1830.4,1571.8 1825.7,1589.8 1797.6,1585.3 
			1768.3,1591.1 1753.2,1583.1 1750.3,1565.7 1755.1,1559.3 1759,1440.7 1769,1370.9 1780.9,1337.2 1784.2,1311.6 1791.5,1301.5 
			1790.5,1275.9 1800.6,1256.7 1798.2,1233 1802.6,1175.6 1794.4,1153.9 1793.9,1122.1 1794.8,1084 1794.8,1045.9 1829.6,1032.9 
			1933.7,1039.2 		"/>
		<linearGradient id="SVGID_59_" gradientUnits="userSpaceOnUse" x1="2011.354" y1="835.5349" x2="2216.447" y2="835.5349">
			<stop  offset="0" style="stop-color:#FFDFB4"/>
			<stop  offset="0.2129" style="stop-color:#FEDAB0"/>
			<stop  offset="0.4519" style="stop-color:#FDCDA5"/>
			<stop  offset="0.7034" style="stop-color:#FAB693"/>
			<stop  offset="0.9622" style="stop-color:#F79779"/>
			<stop  offset="1" style="stop-color:#F69275"/>
		</linearGradient>
		<polygon fill="url(#SVGID_59_)" points="2059.9,762.4 2068.6,803.9 2074.4,834.4 2110.4,831.5 2139.3,819 2139.3,799.2 
			2139.3,787.8 2132.4,769 2134.6,762.4 2140.6,760.8 2152.5,769.5 2210.8,769.5 2216.4,776.7 2216.4,781.7 2211.6,787 2216.4,791 
			2216.4,800.3 2211.6,804.4 2214,810.8 2212.8,817.5 2207.4,819.9 2207.4,825.9 2204.4,832 2178.8,852.7 2159.5,852.7 
			2103.9,894.8 2062.9,905.5 2055.7,910.3 2044.5,910.3 2011.4,884.6 2011.4,763.7 		"/>
		<linearGradient id="SVGID_60_" gradientUnits="userSpaceOnUse" x1="1744.2188" y1="864.6417" x2="2062.9487" y2="864.6417">
			<stop  offset="1.075269e-02" style="stop-color:#413F3F"/>
			<stop  offset="0.2456" style="stop-color:#3D3B3B"/>
			<stop  offset="0.5006" style="stop-color:#302E2E"/>
			<stop  offset="0.764" style="stop-color:#1A1919"/>
			<stop  offset="1" style="stop-color:#000000"/>
		</linearGradient>
		<polygon fill="url(#SVGID_60_)" points="1856.6,617.5 1863.2,621.9 1961.5,635.1 2017.1,658.9 2046.7,683.3 2057.2,716.1 
			2062.9,763.8 2049.9,777.8 2032.1,782.7 2025.5,820.6 2023.9,925.7 2033.5,1011.9 2044.5,1038.2 2052.8,1091.6 2022,1111.8 
			1953.8,1111.8 1912,1086.4 1889.4,1057 1823.3,1047.9 1797.7,1058 1794.8,1084 1783.8,1075.8 1797.3,1008.8 1809.8,993.4 
			1803.5,817.9 1744.2,764.3 1751.5,722.9 1751.5,698.8 1763.5,690.1 1782.3,660.8 1819.4,634.1 		"/>
		<linearGradient id="SVGID_61_" gradientUnits="userSpaceOnUse" x1="1739.879" y1="915.579" x2="1924.2377" y2="915.579">
			<stop  offset="0" style="stop-color:#FFDFB4"/>
			<stop  offset="0.2129" style="stop-color:#FEDAB0"/>
			<stop  offset="0.4519" style="stop-color:#FDCDA5"/>
			<stop  offset="0.7034" style="stop-color:#FAB693"/>
			<stop  offset="0.9622" style="stop-color:#F79779"/>
			<stop  offset="1" style="stop-color:#F69275"/>
		</linearGradient>
		<polygon fill="url(#SVGID_61_)" points="1831.5,782.7 1775.6,761.4 1744.2,764.3 1739.9,851.1 1739.9,880.1 1749,898.4 
			1773.6,956.7 1820.4,1025.7 1825.5,1036.9 1828.4,1057.8 1847.1,1069.7 1875.7,1069.7 1889.4,1057 1889.4,1040.5 1912.7,1046.9 
			1919.7,1044.6 1924.2,1037.3 1911.1,1031.5 1896.6,1027.3 1859.9,1005.7 1839.1,969.1 1816.5,897.4 1801.6,859.3 1801.6,852.1 
			1820.1,815.8 		"/>
		<polygon fill="#FFFFFF" points="2148,745.4 2206.5,751.5 2202.9,769.5 2202.9,769.5 2199.2,772.8 2199.9,784.3 2193.1,785.3 
			2189.9,788.2 2191.3,796.2 2187,798.6 2186,804.7 2194.2,812.9 2189.8,812.9 2185.1,818.7 2187,821.2 2191.7,825.4 2188.3,842.3 
			2147,838.4 		"/>
		<linearGradient id="SVGID_62_" gradientUnits="userSpaceOnUse" x1="1863.1599" y1="553.6927" x2="2013.6042" y2="553.6927">
			<stop  offset="0" style="stop-color:#FFDFB4"/>
			<stop  offset="0.2129" style="stop-color:#FEDAB0"/>
			<stop  offset="0.4519" style="stop-color:#FDCDA5"/>
			<stop  offset="0.7034" style="stop-color:#FAB693"/>
			<stop  offset="0.9622" style="stop-color:#F79779"/>
			<stop  offset="1" style="stop-color:#F69275"/>
		</linearGradient>
		<polygon fill="url(#SVGID_62_)" points="2009.7,467.6 2013.6,480.8 2011,493.2 2005.7,499.6 2010.6,534.3 2003.9,549.8 
			2011.8,570.2 2008.7,576 2002.2,579.7 2001,590.3 1997.4,595.6 1997.4,604.2 1994.3,608.4 1994.3,627.1 1985,632.9 1961.5,630.3 
			1961.5,657.9 1938.1,660.8 1896.6,644.7 1863.2,621.9 1878.6,613.2 1887.3,585.3 1887.3,564.2 1876.8,532.4 1873,493.3 
			1886.5,461.5 1920.2,446.6 1951.1,446.6 1997.2,459.7 		"/>
		<linearGradient id="SVGID_63_" gradientUnits="userSpaceOnUse" x1="1872.9645" y1="505.3929" x2="2013.6041" y2="505.3929">
			<stop  offset="1.075269e-02" style="stop-color:#413F3F"/>
			<stop  offset="0.2456" style="stop-color:#3D3B3B"/>
			<stop  offset="0.5006" style="stop-color:#302E2E"/>
			<stop  offset="0.764" style="stop-color:#1A1919"/>
			<stop  offset="1" style="stop-color:#000000"/>
		</linearGradient>
		<polygon fill="url(#SVGID_63_)" points="1889.4,535 1887.3,564.2 1876.8,532.4 1873,493.3 1886.5,461.5 1920.2,446.6 
			1951.1,446.6 1997.2,459.7 2009.7,467.6 2013.6,480.8 2011,493.2 2005.7,499.6 1963.9,487.3 1942.4,489.7 1945.1,510 
			1935.2,519.4 1929.6,538.9 1930.5,553.7 1920.4,538.7 1913.7,526.9 1895.9,523 		"/>
	</g>
</g>
<g id="LIGHT">
	<g>
		<g>
			<linearGradient id="SVGID_64_" gradientUnits="userSpaceOnUse" x1="1400" y1="1800" x2="1400" y2="30.962">
				<stop  offset="0" style="stop-color:#FFFFFF;stop-opacity:0"/>
				<stop  offset="0.8625" style="stop-color:#FFFFFF;stop-opacity:0.8625"/>
				<stop  offset="1" style="stop-color:#FFFFFF"/>
			</linearGradient>
			<polygon opacity="0.2" fill="url(#SVGID_64_)" points="0,1800 2800,1800 2800,1343.5 1400,31 0,1343.5 			"/>
			
				<linearGradient id="SVGID_65_" gradientUnits="userSpaceOnUse" x1="1400.0001" y1="89.7532" x2="1400.0001" y2="3.690029e-07" gradientTransform="matrix(-1 0 0 1 2800 0)">
				<stop  offset="0" style="stop-color:#283453"/>
				<stop  offset="1" style="stop-color:#6A7490"/>
			</linearGradient>
			<rect x="1393.8" fill="url(#SVGID_65_)" width="12.5" height="89.8"/>
			
				<linearGradient id="SVGID_66_" gradientUnits="userSpaceOnUse" x1="1400.0001" y1="39.8377" x2="1400.0001" y2="17.493" gradientTransform="matrix(-1 0 0 1 2800 0)">
				<stop  offset="0" style="stop-color:#283453"/>
				<stop  offset="1" style="stop-color:#6A7490"/>
			</linearGradient>
			<path fill="url(#SVGID_66_)" d="M1389.6,39.8h20.8c0.4,0,0.7-0.3,0.7-0.7V18.2c0-0.4-0.3-0.7-0.7-0.7h-20.8
				c-0.4,0-0.7,0.3-0.7,0.7v20.9C1388.9,39.5,1389.2,39.8,1389.6,39.8z"/>
			<circle fill="#FFFFFF" cx="1400" cy="114.5" r="51.2"/>
			
				<linearGradient id="SVGID_67_" gradientUnits="userSpaceOnUse" x1="1400.0001" y1="138.4467" x2="1400.0001" y2="39.8377" gradientTransform="matrix(-1 0 0 1 2800 0)">
				<stop  offset="0" style="stop-color:#283453"/>
				<stop  offset="1" style="stop-color:#6A7490"/>
			</linearGradient>
			<path fill="url(#SVGID_67_)" d="M1382,47.8h0.4c-0.2,0-0.4-0.2-0.4-0.4v-7.2c0-0.2,0.2-0.4,0.4-0.4h35.2c0.2,0,0.4,0.2,0.4,0.4
				v7.2c0,0.2-0.2,0.4-0.4,0.4h0.4l96.7,90.6h-229.3L1382,47.8z"/>
		</g>
		<g>
			<linearGradient id="SVGID_68_" gradientUnits="userSpaceOnUse" x1="918.6539" y1="1800" x2="918.6539" y2="30.962">
				<stop  offset="0" style="stop-color:#FFFFFF;stop-opacity:0"/>
				<stop  offset="0.8625" style="stop-color:#FFFFFF;stop-opacity:0.8625"/>
				<stop  offset="1" style="stop-color:#FFFFFF"/>
			</linearGradient>
			<polygon opacity="0.2" fill="url(#SVGID_68_)" points="437.3,31 0,440.9 0,1800 1837.3,1800 1837.3,1343.5 			"/>
			
				<linearGradient id="SVGID_69_" gradientUnits="userSpaceOnUse" x1="2362.6924" y1="89.7532" x2="2362.6924" y2="4.122257e-07" gradientTransform="matrix(-1 0 0 1 2800 0)">
				<stop  offset="0" style="stop-color:#283453"/>
				<stop  offset="1" style="stop-color:#6A7490"/>
			</linearGradient>
			<rect x="431.1" fill="url(#SVGID_69_)" width="12.5" height="89.8"/>
			
				<linearGradient id="SVGID_70_" gradientUnits="userSpaceOnUse" x1="2362.6924" y1="39.8377" x2="2362.6924" y2="17.493" gradientTransform="matrix(-1 0 0 1 2800 0)">
				<stop  offset="0" style="stop-color:#283453"/>
				<stop  offset="1" style="stop-color:#6A7490"/>
			</linearGradient>
			<path fill="url(#SVGID_70_)" d="M426.9,39.8h20.8c0.4,0,0.7-0.3,0.7-0.7V18.2c0-0.4-0.3-0.7-0.7-0.7h-20.8
				c-0.4,0-0.7,0.3-0.7,0.7v20.9C426.2,39.5,426.5,39.8,426.9,39.8z"/>
			<circle fill="#FFFFFF" cx="437.3" cy="114.5" r="51.2"/>
			
				<linearGradient id="SVGID_71_" gradientUnits="userSpaceOnUse" x1="2362.6924" y1="138.4467" x2="2362.6924" y2="39.8377" gradientTransform="matrix(-1 0 0 1 2800 0)">
				<stop  offset="0" style="stop-color:#283453"/>
				<stop  offset="1" style="stop-color:#6A7490"/>
			</linearGradient>
			<path fill="url(#SVGID_71_)" d="M419.3,47.8h0.4c-0.2,0-0.4-0.2-0.4-0.4v-7.2c0-0.2,0.2-0.4,0.4-0.4h35.2c0.2,0,0.4,0.2,0.4,0.4
				v7.2c0,0.2-0.2,0.4-0.4,0.4h0.4l96.7,90.6H322.7L419.3,47.8z"/>
		</g>
		<g>
			
				<linearGradient id="SVGID_72_" gradientUnits="userSpaceOnUse" x1="437.3079" y1="89.7532" x2="437.3079" y2="3.257819e-07" gradientTransform="matrix(-1 0 0 1 2800 0)">
				<stop  offset="0" style="stop-color:#283453"/>
				<stop  offset="1" style="stop-color:#6A7490"/>
			</linearGradient>
			<rect x="2356.4" fill="url(#SVGID_72_)" width="12.5" height="89.8"/>
			
				<linearGradient id="SVGID_73_" gradientUnits="userSpaceOnUse" x1="437.3079" y1="39.8377" x2="437.3079" y2="17.493" gradientTransform="matrix(-1 0 0 1 2800 0)">
				<stop  offset="0" style="stop-color:#283453"/>
				<stop  offset="1" style="stop-color:#6A7490"/>
			</linearGradient>
			<path fill="url(#SVGID_73_)" d="M2352.3,39.8h20.8c0.4,0,0.7-0.3,0.7-0.7V18.2c0-0.4-0.3-0.7-0.7-0.7h-20.8
				c-0.4,0-0.7,0.3-0.7,0.7v20.9C2351.6,39.5,2351.9,39.8,2352.3,39.8z"/>
			<circle fill="#FFFFFF" cx="2362.7" cy="114.5" r="51.2"/>
			
				<linearGradient id="SVGID_74_" gradientUnits="userSpaceOnUse" x1="437.3079" y1="138.4467" x2="437.3079" y2="39.8377" gradientTransform="matrix(-1 0 0 1 2800 0)">
				<stop  offset="0" style="stop-color:#283453"/>
				<stop  offset="1" style="stop-color:#6A7490"/>
			</linearGradient>
			<path fill="url(#SVGID_74_)" d="M2344.7,47.8h0.4c-0.2,0-0.4-0.2-0.4-0.4v-7.2c0-0.2,0.2-0.4,0.4-0.4h35.2c0.2,0,0.4,0.2,0.4,0.4
				v7.2c0,0.2-0.2,0.4-0.4,0.4h0.4l96.7,90.6H2248L2344.7,47.8z"/>
			<linearGradient id="SVGID_75_" gradientUnits="userSpaceOnUse" x1="1881.3461" y1="1800" x2="1881.3461" y2="30.962">
				<stop  offset="0" style="stop-color:#FFFFFF;stop-opacity:0"/>
				<stop  offset="0.8625" style="stop-color:#FFFFFF;stop-opacity:0.8625"/>
				<stop  offset="1" style="stop-color:#FFFFFF"/>
			</linearGradient>
			<polygon opacity="0.2" fill="url(#SVGID_75_)" points="2800,440.9 2362.7,31 962.7,1343.5 962.7,1800 2800,1800 			"/>
		</g>
	</g>
</g>
</svg>
