<svg width="1189mm" height="841mm" inkscape:version="1.1.1 (3bf5ae0d25, 2021-09-20)" sodipodi:docname="strassenschild_3.svg" version="1.1" viewBox="0 0 1189 841" xmlns="http://www.w3.org/2000/svg" xmlns:inkscape="http://www.inkscape.org/namespaces/inkscape" xmlns:sodipodi="http://sodipodi.sourceforge.net/DTD/sodipodi-0.dtd">
 <sodipodi:namedview bordercolor="#eee3e3" borderlayer="true" borderopacity="1" inkscape:current-layer="layer1" inkscape:cx="1215.3545" inkscape:cy="1009.4964" inkscape:document-units="mm" inkscape:pagecheckerboard="1" inkscape:pageopacity="0" inkscape:pageshadow="0" inkscape:window-height="991" inkscape:window-maximized="1" inkscape:window-width="1920" inkscape:window-x="-9" inkscape:window-y="-9" inkscape:zoom="0.1263006" pagecolor="#ffffff" showgrid="false"/>
 <g inkscape:groupmode="layer" inkscape:label="Ebene 1">
  <g transform="matrix(4.8037 0 0 2.5134 -235.05 -849.96)" stroke-width=".65307">
   <path d="m56.826 558.61c-0.0902-99.373-0.0617-100.44 2.6396-99.383 2.667 1.045 2.7113 2.574 2.8463 97.927 0.0755 53.3-0.2346 97.926-0.6896 99.154-0.4556 1.229-1.6972 2.37-2.7615 2.533-1.6513 0.253-1.9572-14.786-2.0348-100.23zm11.932 1.562c-0.3668-72.46-0.0949-97.599 1.0683-99.009 0.8548-1.036 1.7513-1.56 1.994-1.167 1.1566 1.875-0.1041 196.87-1.2773 197.05-0.819 0.126-1.4738-35.377-1.785-96.877zm18.215-89.735c-0.2447-3.91-0.0169-7.052 0.5056-6.979 0.5217 0.072 0.9527 3.297 0.9585 7.166 0.0135 9.079-0.8906 8.976-1.4641-0.187zm182.88 23.916c1.177-0.057 3.09 0.184 4.252 0.533 1.157 0.348 0.212 0.396-2.115 0.106-2.351-0.292-3.319-0.581-2.137-0.639zm13.608 0.087c-0.402-0.748-0.587-1.861-0.411-2.472 0.2-0.699 0.338-0.524 0.371 0.468 0.029 0.869 0.351 1.618 0.716 1.665 0.389 0.051 0.491-0.707 0.248-1.837-0.368-1.711-0.272-1.797 0.862-0.766 0.718 0.653 1.126 1.683 0.94 2.368-0.492 1.811-1.899 2.112-2.726 0.574zm-188.24-24.998c-0.3943-0.703-0.2579-1.062 0.3027-0.797 0.5597 0.264 1.0161-0.088 1.015-0.783-1e-3 -0.694-0.4586-1.168-1.0177-1.052-0.5601 0.116-0.689-0.292-0.2859-0.907 1.0254-1.564 5.3959-0.43 6.1049 1.567 0.963 2.713-4.6696 4.555-6.119 1.972zm-40.16-17.416c0.3889-3.93 0.8946-4.813 1.8912-3.313 1.026 1.544 1.1547 1.413 0.5303-0.537-0.4546-1.42-0.8353-8.522-0.8455-15.782-0.016-11.478-0.3351-13.327-2.4554-14.196-1.3478-0.552 1.2999-0.377 5.8335 0.382 12.377 2.072 12.26 1.937 11.77 13.269-0.2335 5.412 0.1877 11.673 0.9345 13.904 0.9678 2.891 0.9283 4.239-0.139 4.728-0.8239 0.378-1.7366-0.048-2.0267-0.947-0.2902-0.9-0.9267-1.455-1.4147-1.232-0.4888 0.223-0.7085-5.736-0.4877-13.238l0.401-13.626-4.4622-0.856c-2.9406-0.563-3.8924-0.355-2.7174 0.598 1.3357 1.083 1.6338 4.178 1.1661 12.084-0.3464 5.854-1.0294 11.215-1.5182 11.909-0.4894 0.694-0.2375 1.366 0.5587 1.491 0.7944 0.125 1.446 2.317 1.4496 4.873 0.0036 2.555 0.654 4.738 1.4436 4.852 0.7877 0.113 0.9738-0.605 0.4144-1.595-0.6367-1.128-0.1201-0.96 1.3732 0.445 2.0198 1.901 2.5478 1.986 3.5185 0.575 0.6268-0.911 0.8821-2.102 0.5681-2.65-0.5473-0.953 2.4778-2.118 4.6259-1.789 0.5623 0.086 0.7578 1.499 0.4353 3.142-0.4394 2.237 0.1032 3.269 2.1464 4.094 1.9427 0.784 2.7163 0.485 2.7282-1.046 0.0129-1.675 0.2556-1.728 1.1158-0.244 0.797 1.374 1.2726 0.978 1.7434-1.449 0.5258-2.711 0.0399-3.657-2.6149-5.08-3.7577-2.014-2.2399-4.662 1.8372-3.229 1.8464 0.649 2.4632 2.207 2.7717 6.986 0.3636 5.629 0.1512 6.121-2.5461 5.88-1.6299-0.146-3.5256-0.453-4.2066-0.683-4.5636-1.535-21.776-4.006-22.935-3.262-0.9342 0.6-1.2378-0.922-0.8878-4.458zm32.58-7.746c-0.0152-10.21 0.1749-14.349 0.4224-9.203 0.2474 5.143 0.2598 13.488 0.0278 18.552-0.2323 5.067-0.4349 0.861-0.4502-9.349zm18.068 18.672c-0.825-1.15-0.938-2.174-0.275-2.503 0.614-0.306 1.741 0.319 2.503 1.385 0.816 1.144 0.928 2.161 0.273 2.493-0.611 0.308-1.736-0.309-2.501-1.375zm174.3 25.161c-0.222-0.542-0.026-0.82 0.435-0.617 0.459 0.202 0.755-0.182 0.659-0.853-0.096-0.672 0.129-0.907 0.501-0.524 0.473 0.489 0.456 1.044-0.058 1.863-0.876 1.397-1.015 1.409-1.537 0.131zm-212.31-36.06c0.0622-1.527 0.3799-1.791 0.8094-0.675 0.3882 1.01 0.3423 2.139-0.1023 2.51-0.445 0.373-0.7635-0.453-0.7072-1.835zm218.97 20.367c-0.142-11.221-0.284-12.746-1.239-13.305-1.016-0.593-1.015-0.625 0.018-0.508 0.604 0.068 1.236 0.674 1.406 1.347 0.169 0.672 0.233 6.598 0.142 13.172l-0.166 11.961zm-210.5-49.588c-0.4464-0.804 0.0782-1.287 1.1632-1.072 1.0815 0.214 2.5568-0.513 3.2801-1.614 0.8258-1.256 1.3265-1.359 1.3527-0.28 0.0402 1.654-2.9529 4.82-4.317 4.555-0.3676-0.071-1.0331-0.786-1.479-1.589zm11.497-13.418 0.0374-15.665 202.72 49.422-82.607-19.873-119.41-28.727-0.3923 15.245-0.3928 15.266zm-4.0341 11.34c0.0124-5.217-0.4266-6.955-1.6357-6.459-0.7078 0.29-1.2888-0.035-1.2899-0.721-1e-3 -0.687-1.2183-1.19-2.7111-1.117-2.0043 0.097-2.5793 0.95-2.1584 3.209 0.4405 2.363 0.091 2.797-1.521 1.882-3.0761-1.746-5.894-7.145-3.1083-5.974 1.1455 0.481 5.2187-0.046 8.5068-1.092 4.7806-1.522 5.969-0.205 5.9274 6.506-0.0219 3.525-0.4832 6.322-1.026 6.214-0.5437-0.107-0.9868-1.209-0.9838-2.448zm-27.903-6.637c-0.4444-1.203-0.3972-4.232 0.1048-6.726 0.5012-2.49 0.8876-16.267 0.8594-30.619-0.0504-26.029-0.0445-26.091 2.9996-25.192 3.0136 0.889 3.024 0.979 3.0597 26.124 0.0226 15.922-0.4673 25.132-1.3293 24.955-0.7531-0.153-0.444 0.505 0.6851 1.463 1.7386 1.475 1.749 1.672 0.0702 1.324-1.5427-0.32-1.6183 0.024-0.3391 1.543 0.9018 1.07 1.6406 3.915 1.644 6.323 0.0054 3.802-0.4486 4.289-3.4531 3.688-1.9177-0.383-3.8574-1.681-4.3012-2.883zm11.916 1c0.0621-1.524 0.3798-1.77 0.8093-0.63 0.3882 1.03 0.3423 2.156-0.1022 2.503-0.4451 0.348-0.7635-0.495-0.7072-1.873zm29.212 4.601c0.8858-0.18 1.9418 0.084 2.3483 0.586 0.406 0.501-0.3144 0.65-1.6051 0.33-1.4323-0.356-1.7249-0.716-0.7432-0.916zm-31.915-9.127c0.0627-1.529 0.3829-1.774 0.8158-0.627 0.3913 1.037 0.345 2.167-0.103 2.513-0.4486 0.346-0.7696-0.502-0.7128-1.886zm3.5413-25.801c0.153-14.986 0.2848-27.978 0.2931-28.88 0.0084-0.902 0.6414-1.455 1.4053-1.23 0.9257 0.274 1.2684 8.852 1.0349 25.872-0.1924 14.018 0.0987 25.593 0.6463 25.713 0.5466 0.119 0.9945 1.1 0.9961 2.179 0.0015 1.08-0.8413 1.783-1.8758 1.562-1.0378-0.222-2.089 0.149-2.3334 0.824-0.2445 0.676-0.3195-11.045-0.1664-26.04zm30.067 24.47c1.9427-1.187 1.9447-1.438 0.0378-3.835-1.3008-1.635-1.5072-2.454-0.5625-2.234 0.8171 0.191 1.485 0.945 1.4862 1.677 0.0011 0.732 0.5502 1.107 1.2182 0.834 0.666-0.272 1.212 0.364 1.214 1.413 2e-3 1.05-1.224 2.247-2.7296 2.663-2.4463 0.675-2.5211 0.617-0.6641-0.518zm185.26 42.026c-0.759-1.26-0.435-2.144 0.514-1.404 0.512 0.399 0.929 0.279 0.927-0.266-1e-3 -0.544 0.276-0.926 0.615-0.849 0.993 0.228 0.71 2.597-0.352 2.952-1.21 0.404-1.199 0.407-1.704-0.433z" fill="#abaed4"/>
   <path d="m71.787 557.39c-0.0256-81.374 0.2787-98.914 1.6763-96.859 0.9356 1.376 2.0027 2.238 2.3735 1.92 0.3704-0.318 0.8524 43.109 1.0715 96.5l0.3982 97.061-2.7328 0.42-2.7554 0.422zm89.386-76.686c23.344 2.764 57.52 7.059 76.289 9.565 17.474 2.333 3.052 0.649-35.753-4.196-45.287-5.654-65.913-8.374-40.536-5.369zm115.23 14.508c0.462-0.205 1.014-0.104 1.227 0.225s-0.164 0.497-0.838 0.374c-0.748-0.136-0.901-0.372-0.389-0.599zm-180.96-24.109c-0.347-0.618 0.5919-0.924 2.0806-0.68 1.6208 0.265 2.5556-0.24 2.3522-1.268-0.1855-0.94 0.2514-1.255 0.9704-0.701 0.914 0.704 0.88 1.475-0.115 2.587-1.5748 1.761-4.312 1.8-5.2882 0.062zm190.46 23.452c-0.026-0.372-0.146-1.43-0.266-2.351-0.121-0.922-0.047-1.405 0.163-1.072 0.484 0.765 0.861 4.19 0.456 4.138-0.167-0.021-0.326-0.343-0.353-0.715zm-205.14-32.018c-0.0011-0.712 1.4822-1.087 3.2872-0.835 1.851 0.258 2.9186 0.962 2.4751 1.628-0.4308 0.646-1.8969 1.025-3.2626 0.84-1.3715-0.186-2.4987-0.921-2.4997-1.633zm-24.098-6.536c0.7421-0.612 3.6497-0.107 7.1393 1.233l5.7914 2.223-7.0176-1.199c-4.2407-0.724-6.6568-1.643-5.9131-2.257zm38.445-14.901c-0.0102-8.353 0.1848-11.567 0.4333-7.146 0.2483 4.418 0.2567 11.245 0.0186 15.177-0.2382 3.935-0.4417 0.322-0.4519-8.031zm-19.837 7.379c1.2215-1.023 1.9186-0.912 3.1366 0.494 1.2137 1.4 0.8684 1.692-1.5623 1.315-2.4486-0.38-2.8004-0.783-1.5743-1.809zm-2.795-3.298c-1.41-3.849-1.1001-21.719 0.3863-22.339 0.7259-0.303 1.3196 0.073 1.3207 0.834s1.0377 1.591 2.2993 1.844c1.2903 0.259 1.7161 0.765 0.9811 1.164-1.896 1.027-2.0611 17.245-0.1917 18.906 0.9869 0.877 0.7497 0.983-0.6752 0.3-1.2151-0.583-2.4375-0.425-2.7126 0.352-0.2783 0.786-0.9031 0.316-1.4079-1.061zm-5.6207-25.544c-3.1062-1.35-2.0191-1.395 4.5669-0.199 4.6544 0.845 8.1723 1.687 7.8756 1.882-1.3589 0.891-8.8101-0.104-12.442-1.683zm3.3622-4.207c0.0114-1.416 0.3929-1.664 0.9969-0.648 0.5377 0.904 1.8707 2.161 2.9597 2.794 1.3184 0.765 0.9922 0.98-0.9881 0.649-2.0029-0.335-2.98-1.253-2.9685-2.795zm24.485 5.239c0.0571-1.463 0.3498-1.702 0.7458-0.611 0.3579 0.986 0.3157 2.067-0.0939 2.404-0.4101 0.337-0.7036-0.47-0.6519-1.793zm-22.525-13.826c-0.8406-0.503-1.2-10.147-0.9784-26.29 0.2851-20.776 0.6914-25.362 2.2023-24.915 1.0147 0.3 2.2084 1.238 2.6548 2.086 0.4459 0.846 0.0399 1.322-0.904 1.057-1.3256-0.371-1.3506-0.139-0.1082 1.004 1.1973 1.101 1.478 6.735 1.1012 22.066-0.3515 14.306-0.0439 21.337 1.0026 22.947 0.8273 1.272 0.994 1.77 0.3712 1.108-0.624-0.664-1.7819-0.55-2.5738 0.257-0.7937 0.808-2.0393 1.115-2.7677 0.68zm22.967 1.906c-0.3141-0.59 0.25-0.764 1.2511-0.388 2.5631 0.961 3.4816 2.382 1.2187 1.879-1.0433-0.232-2.1559-0.903-2.4698-1.491zm-29.961-57.581c-0.0015-1.06 0.504-1.774 1.1224-1.588 0.6172 0.186 1.1222 0.897 1.1231 1.579 1e-3 0.683-0.5019 1.397-1.1186 1.587-0.6178 0.192-1.1254-0.519-1.1269-1.578z" fill="#a4a4a5"/>
   <path d="m76.815 570.39c-0.4253-108.4-0.3452-104.65-2.3154-108.39-1.4097-2.675-1.3607-3.13 0.3103-2.894 1.1706 0.166 1.6813 0.994 1.2578 2.037-0.5223 1.286 0.02 1.671 2.0019 1.425l2.6954-0.334 0.1423 96.573c0.1252 85.027-0.0904 96.666-1.8013 96.928-1.7152 0.264-1.9961-10.177-2.291-85.346zm32.488-98.459c0.054-1.435 0.334-1.692 0.713-0.656 0.342 0.937 0.302 1.998-0.09 2.359-0.392 0.362-0.672-0.404-0.623-1.703zm-42.808-19.946c0.0245-2.177 0.3253-2.862 0.6683-1.525 0.3428 1.336 0.3229 3.115-0.044 3.954-0.3675 0.84-0.6485-0.252-0.6242-2.429zm218.64 30.543c0.216-1.176 0.495-1.537 0.651-0.843 0.149 0.668-0.02 1.593-0.378 2.058-0.457 0.595-0.538 0.233-0.273-1.215zm-210.84-36.698c0.8147-1.383 1.5666-6.097 1.6726-10.478 0.1059-4.379 0.7806-8.279 1.498-8.668 0.7466-0.405 0.389-0.889-0.8412-1.137-1.1838-0.238-2.4978-1.381-2.9167-2.54-0.4194-1.161-0.1872-1.998 0.5152-1.859 0.7009 0.139 1.2741 0.839 1.2752 1.556 1e-3 0.717 1.1806 1.533 2.6157 1.811 2.3924 0.465 2.5948 1.366 2.6098 11.587 0.0155 10.495-0.121 11.018-2.5784 9.842-1.8537-0.886-2.6142-0.657-2.6121 0.793 0.0016 1.124-0.6088 1.948-1.3581 1.83-0.9021-0.142-0.8613-1.072 0.12-2.737zm211.19 26.988c-7e-3 -3.197 0.102-4.485 0.242-2.861 0.14 1.622 0.146 4.236 0.013 5.81-0.134 1.575-0.249 0.248-0.255-2.949zm-202.44-48.227c0.924-0.191 2.0254 0.071 2.4493 0.581 0.4235 0.509-0.3279 0.666-1.6742 0.349-1.4941-0.353-1.7993-0.718-0.7751-0.93zm202.27 37.838c0.028-1.036 0.173-1.219 0.372-0.466 0.179 0.681 0.159 1.447-0.045 1.704-0.205 0.257-0.352-0.3-0.327-1.238zm-226.95-45.348c1.3398-0.071 3.1907 0.321 4.1157 0.87 0.9225 0.547-0.1614 0.608-2.42 0.132-2.2736-0.478-3.0407-0.93-1.6957-1.002zm8.0752-3.418c0.0244-2.175 0.3252-2.843 0.6682-1.487 0.3428 1.355 0.3229 3.132-0.044 3.95-0.3675 0.819-0.6485-0.289-0.6242-2.463zm7.2623-4.067c-0.3422-0.62 0.1573-2.017 1.1079-3.101 0.9657-1.1 2.0682-1.326 2.5099-0.518 0.4329 0.792 0.0504 1.575-0.8517 1.741-1.2448 0.23-1.1662 0.746 0.3218 2.113 1.6997 1.562 1.6673 1.739-0.2477 1.347-1.2186-0.25-2.4984-0.961-2.8402-1.582zm4.0207-4.324c-1.7697-2.34-2.0058-5.841-1.5743-23.399 0.3771-15.349 0.0967-20.987-1.1007-22.088-1.2424-1.143-1.2174-1.375 0.1082-1.004 0.9439 0.265 1.3913-0.132 0.9962-0.882-0.3955-0.751 0.4521-1.324 1.8784-1.274 2.5093 0.088 2.5787 0.776 2.6156 25.833 0.0209 14.159-0.1627 25.701-0.408 25.647-0.2455-0.053-1.376-1.327-2.5154-2.833zm-14.669-53.447c-1.3175-1.684 1.4692-4.107 3.8686-3.379 1.0178 0.308 1.85 1.745 1.8521 3.192 0.0021 1.448-0.58 2.46-1.2948 2.249-0.7164-0.212-0.9558-1.174-0.5312-2.136 0.4241-0.961 0.1458-1.934-0.6196-2.165-0.7671-0.231-1.5917 0.467-1.8309 1.553-0.2395 1.086-0.8891 1.396-1.4442 0.686z" fill="#69696c"/>
   <path d="m89.706 475.78c-0.0025-0.832 2.5086-1.04 6.22-0.522 3.3731 0.47 6.1083 1.256 6.1103 1.751s0.683 0.733 1.512 0.529c4.146-1.02 8.153-0.658 7.713 0.68-0.618 1.878-21.549-0.424-21.555-2.438zm24.328 3.009c1.856-1.739 165.29 18.01 164.35 19.347-0.575 0.812-14.402-0.561-70.753-7.159-59.659-6.985-94.371-11.46-93.594-12.188zm164.89 20.368c0.436-0.189 0.794-1.022 0.798-1.852 6e-3 -1.305 0.09-1.315 0.622-0.075 0.897 2.089 0.79 2.41-0.785 2.337-0.785-0.037-1.072-0.221-0.635-0.41zm3.31-0.092c-1e-3 -0.387 0.42-0.653 0.935-0.592 0.514 0.062 1.136 0.106 1.383 0.099s0.55 0.43 0.672 0.972c0.127 0.56-0.466 0.821-1.378 0.606-0.884-0.209-1.612-0.697-1.612-1.085zm4.841 0.227c0.559-0.528 1.155-0.817 1.327-0.643 0.171 0.175 0.343-1.081 0.38-2.789 0.048-2.168-0.102-2.765-0.497-1.977-0.371 0.739-0.429 0.07-0.166-1.929 0.529-4.015 0.531-3.69-0.033-5.652-0.273-0.945-0.25-1.943 0.051-2.215 0.299-0.271 0.629-1.219 0.733-2.106 0.134-1.137-0.046-1.442-0.61-1.036-0.539 0.387-0.503 0.082 0.109-0.927 0.694-1.142 0.729-1.615 0.148-1.996-0.545-0.359-0.769-3.159-0.783-9.824-0.011-5.128-0.225-9.18-0.477-9.005-0.253 0.174-0.501-0.656-0.552-1.845-0.051-1.19 0.154-2.11 0.455-2.045s0.548 0.585 0.549 1.156c2e-3 0.571 0.179 0.819 0.394 0.55 0.215-0.268 0.028-1.2-0.417-2.072-0.734-1.442-0.859-1.471-1.346-0.306-0.296 0.707-0.387 1.672-0.203 2.142 0.185 0.469-0.345 0.899-1.179 0.956-0.943 0.063-1.375-0.216-1.132-0.736 0.244-0.521-0.031-0.692-0.73-0.452-0.953 0.326-1.006 0.2-0.34-0.818 0.659-1.007 0.584-1.244-0.473-1.471-1.154-0.249-2.186-2.261-2.341-4.575-0.034-0.505-0.35-1.701-0.703-2.658-0.607-1.647-4.112-2.553-71.064-18.159-48.642-11.338-96.312-22.446-97.261-22.665-1.129-0.26-1.469 0.379-0.975 1.835 0.547 1.612 0.327 1.853-0.797 0.871-1.185-1.036-1.415-0.541-0.955 2.057 0.333 1.879 0.115 3.308-0.487 3.176s-0.712 0.489-0.243 1.379c0.507 0.965 0.33 1.168-0.442 0.505-0.713-0.613-1.648-0.6-2.077 0.031-0.43 0.633-1.956 0.559-3.397-0.167-1.8223-0.918-2.1345-0.862-1.009 0.185 1.308 1.216 1.238 1.576-0.364 1.872-1.0966 0.203-1.6813-0.089-1.2971-0.65 0.3839-0.559-0.2764-1.808-1.4709-2.779-1.8974-1.542-1.9208-1.722-0.1782-1.377 2.4557 0.487 4.1532-1.267 5.1162-5.262 0.607-2.518 0.168-3.417-2.57-5.246-2.0447-1.366-2.309-1.741-0.6807-0.968 1.4517 0.689 2.9157 0.846 3.2577 0.352 0.343-0.494-0.834-1.219-2.6244-1.614-2.7045-0.597-3.5523 0.067-4.8403 3.812-1.1763 3.419-1.2146 5.069-0.153 6.609 0.7755 1.124 0.9523 1.943 0.3936 1.822-0.5596-0.122-0.3482 0.607 0.4687 1.619 1.9591 2.424 1.8932 4.367-0.1077 3.16-1.0235-0.617-1.6942 0.218-1.8639 2.326-0.1459 1.81-0.8199 3.371-1.4991 3.467-0.6806 0.097-1.2285 1.134-1.2162 2.303 0.0194 1.84 0.186 1.901 1.2311 0.454 0.9355-1.295 1.2097-0.869 1.2287 1.902 0.014 2.059-0.5021 3.137-1.222 2.548-1.7201-1.408-1.5802 3.309 0.1597 5.394 1.2954 1.553 1.2556 3.377-0.471 21.571-0.1474 1.553-0.6901 2.763-1.2068 2.689-0.5176-0.074-0.9544-8.703-0.9702-19.174-0.021-14.036 0.3838-19.123 1.5382-19.363 1.248-0.26 1.2478-0.408-0.0011-0.743-1.1363-0.304-1.5728-3.744-1.586-12.521l-0.0182-12.1 200.53 48.298 0.012 5.739c7e-3 3.235-0.252 5.681-0.594 5.608-0.333-0.072-0.605 0.468-0.604 1.2 2e-3 0.732 0.276 1.389 0.61 1.459 0.387 0.081 0.622 7.769 0.65 21.283l0.045 21.159-2.079-0.328c-1.802-0.285-1.955-0.468-1.08-1.296zm-195.28-55.89c-0.3013-1.634-0.5559-0.682-0.5655 2.117-0.0097 2.799 0.237 4.134 0.548 2.967 0.3106-1.165 0.3185-3.452 0.0175-5.084zm194.95 9.556c0.653-0.575 0.89-1.11 0.528-1.191-0.901-0.201-1.392-4.467-0.621-5.408 0.419-0.513 0.049-0.743-1.151-0.711-3.363 0.091-4.327 2.653-2.336 6.254 1.236 2.233 1.993 2.453 3.58 1.056zm-1.1 44.919c0.209-0.466 0.502-0.832 0.651-0.814 0.149 0.019 0.272 0.436 0.273 0.926 1e-3 0.491-0.291 0.858-0.65 0.815s-0.482-0.461-0.274-0.927zm-195.48-26.988c-1.33-3.676 0.2382-4.78 1.7408-1.238 0.9349 2.204 1.0206 3.451 0.2307 3.353-0.6939-0.086-1.5815-1.037-1.9715-2.115zm188.95 22.943c0.028-1.053 0.178-1.248 0.381-0.498 0.185 0.677 0.164 1.456-0.046 1.73-0.21 0.275-0.361-0.28-0.335-1.232zm-115.54-15.089c24.368 2.99 60.114 7.621 79.781 10.314 18.235 2.498 3.418 0.704-36.945-4.493-47.498-6.115-69.439-9.084-42.836-5.821zm-73.893-15.615c-0.0016-1.053 0.2194-1.883 0.4909-1.845 0.2712 0.038 0.8187 0.976 1.2165 2.081 0.3973 1.105 0.1776 1.934-0.489 1.844-0.668-0.091-1.2168-1.027-1.2184-2.08zm132.36 9.685c-1e-3 -0.56-2.08-1.365-4.643-1.792-2.588-0.432-6.221-1.699-8.063-2.818-8.031-4.883-20.645-7.584-49.693-10.346-30.614-2.911-45.767-5.676-45.772-8.562-1e-3 -0.816-1.055-2.663-2.346-4.11-1.297-1.453-2.363-3.433-2.364-4.395-2e-3 -1.185-0.766-1.633-2.377-1.389-1.37 0.207-2.393-0.205-2.394-0.969-1e-3 -0.733-0.408-1.339-0.904-1.349-3.274-0.06-3.9399-1.26-3.9489-7.151-0.0053-3.456 0.4869-6.183 1.0939-6.061 0.605 0.122 0.874 1.445 0.598 2.94-0.276 1.497-0.178 2.077 0.219 1.288 0.396-0.787 1.211-1.019 1.811-0.517 0.599 0.501 0.795 0.065 0.437-0.97-0.367-1.062 0.565-2.466 2.131-3.214 1.519-0.727 4.032-3.908 5.582-7.058l2.8-5.687 92.675 21.063c49.941 11.35 68.896 15.951 68.898 16.625 1e-3 0.532 0.291 0.778 0.643 0.547s0.641 0.039 0.642 0.599 0.286 0.831 0.633 0.602c0.364-0.24 0.466 0.157 0.243 0.943-0.212 0.748 0.075 2.183 0.638 3.187 0.561 1.002 0.904 2.666 0.762 3.701-0.19 1.396-9e-3 1.797 0.702 1.55 0.768-0.266 0.791-0.508 0.12-1.24-0.575-0.626-0.401-0.774 0.554-0.473 1.289 0.406 1.315 0.532 0.371 1.842-0.944 1.309-0.931 1.433 0.183 1.709 1.032 0.255 1.003 0.368-0.216 0.83-1.904 0.722-1.787 1.101 0.475 1.541 2.102 0.41 2.119 0.38 1.245-2.132-0.424-1.222-0.421-1.957 0.011-2.254 0.352-0.241 0.564 0.081 0.471 0.716-0.093 0.636 0.182 1.125 0.609 1.088 0.574-0.051 0.779 2.017 0.792 7.967 0.014 6.774-0.129 7.93-0.915 7.363-0.515-0.371-0.937-0.955-0.937-1.298-1e-3 -0.342-1.005-0.626-2.237-0.631-1.904-7e-3 -2.314-0.329-2.627-2.068-0.286-1.591-0.679-1.982-1.722-1.709-0.747 0.196-2.72 0.068-4.393-0.287-1.684-0.358-3.264-0.25-3.498 0.242-0.541 1.133-4.157 0.558-4.706-0.76-0.463-1.112-2.912 0.059-4.159 2-0.624 0.971-2.342 0.815-9.142-0.85-17.006-4.164-18.176-4.246-20.47-1.295-1.122 1.444-3.206 2.968-4.634 3.384-3.177 0.926-3.176 0.926-3.178-0.342zm60.745-2.942c-7e-3 -0.867-0.287-2.234-0.622-3.04-0.463-1.113-0.611-0.761-0.614 1.462-2e-3 1.612 0.279 2.98 0.624 3.042 0.344 0.061 0.619-0.598 0.612-1.464zm-171.28-39.61c-2.373-1.983-2.489-2.279-0.59-1.502 1.774 0.726 2.384 0.275 2.506-1.842 0.142-2.457-0.047-2.622-1.548-1.347-2.334 1.983-4.645 1.425-2.68-0.658 1.357-1.438 1.17-1.516-1.747-0.722-2.924 0.795-3.049 1.052-1.09 2.245 1.209 0.737 1.693 1.278 1.078 1.204-1.79-0.215 3.297 4.366 5.246 4.736 1.051 0.2 0.582-0.644-1.175-2.114zm-13.933 9.376c-0.0121-7.974 0.1821-11.198 0.4314-7.166 0.2491 4.029 0.2591 10.546 0.0221 14.49-0.2372 3.946-0.4413 0.651-0.4535-7.324zm187.78 39.792c0.027-1.038 0.173-1.225 0.371-0.48 0.18 0.674 0.16 1.442-0.045 1.706-0.204 0.264-0.351-0.287-0.326-1.226z" fill="#454c99"/>
   <path d="m91.898 477.22c0.8569-0.252 2.2552-0.087 3.1072 0.365 0.8498 0.45 0.1556 0.656-1.5489 0.458-1.7134-0.199-2.4174-0.571-1.5583-0.823zm7.1024 0.792c4.2835-0.597 5.0495-2.388 0.8737-2.031-2.6604 0.227-3.9453-0.148-3.9469-1.16-0.0012-0.823 0.5517-1.078 1.2275-0.566 2.0641 1.562 8.3532-2.242 7.5432-4.53-0.635-1.798-0.495-1.792 1.189 0.045 1.045 1.14 1.683 2.277 1.421 2.529-0.263 0.253 0.448 1.641 1.575 3.081 1.123 1.434 1.524 2.436 0.893 2.229-2.649-0.867-6.629-0.667-6.081 0.315 0.326 0.583-1.134 0.919-3.254 0.746-2.2049-0.179-2.8306-0.465-1.4405-0.658zm7.8385-3.186c-1e-3 -0.684-0.808-1.345-1.795-1.469-0.991-0.125-1.803 0.335-1.802 1.023 1e-3 0.687 0.815 1.349 1.806 1.47 0.987 0.12 1.792-0.341 1.791-1.024zm4.313 3.62c0.493-1.295 2.29-1.517 6.653-0.835 5.371 0.84 5.481 0.912 1.314 0.851-2.532-0.037-5.117 0.389-5.725 0.948-1.706 1.567-2.995 1.017-2.242-0.964zm58.386 7.791c22.938 2.537 56.533 6.496 74.99 8.817 17.186 2.161 3.003 0.616-35.149-3.85-44.506-5.209-64.77-7.724-39.841-4.967zm106.23 12.551c0.463-0.209 1.017-0.112 1.23 0.216 0.214 0.328-0.164 0.499-0.841 0.381-0.75-0.131-0.903-0.366-0.389-0.597zm1.848-0.389c-0.173-0.655 0.215-1.086 0.901-1.003 1.407 0.17 1.585 1.209 0.302 1.762-0.496 0.213-1.037-0.128-1.203-0.759zm3.617 0.615c-0.294-0.709-0.62-2.066-0.723-3.016-0.147-1.344-2e-3 -1.482 0.652-0.622 0.461 0.606 1.714 1.305 2.781 1.555 1.063 0.248 1.793 0.752 1.628 1.122-0.166 0.369 0.148 0.726 0.696 0.792 0.573 0.069 0.814-0.322 0.57-0.923-0.233-0.574-0.044-1.353 0.42-1.731 0.706-0.574 0.694-0.858-0.078-1.776-0.791-0.939-0.775-1.008 0.112-0.481 0.568 0.338 1.157 0.153 1.311-0.41 0.153-0.563 0.251-0.128 0.216 0.966s-0.313 1.958-0.618 1.92c-0.305-0.039-0.199 0.598 0.236 1.413 0.434 0.813 0.538 1.377 0.23 1.255-1.237-0.492-1.735-0.081-0.923 0.762 0.614 0.638 0.4 0.799-0.757 0.565-0.893-0.179-1.759-0.839-1.921-1.465-0.311-1.197-2.22-0.829-2.908 0.568-0.218 0.443-0.625 0.226-0.924-0.494zm-190.78-24.607c-1.474-1.675-0.7231-2.885 1.1777-1.906 1.2078 0.622 1.7859 0.343 1.5571-0.749-0.4791-2.286-2.6737-5.175-3.6012-4.731-0.4034 0.193-0.7349-0.407-0.7363-1.334-0.0015-0.993 0.9274-1.312 2.2563-0.777 1.2357 0.496 2.1976 1.262 2.1418 1.704-0.0559 0.441 0.0067 1.102 0.139 1.468 1.173 3.249 0.9617 6.326-0.4618 6.711-0.9463 0.256-2.0599 0.083-2.4726-0.386zm196.7 17.721c0.846-0.497 0.788-2.611-0.097-3.53-0.502-0.522-0.583-0.213-0.268 1.023 0.363 1.425 0.299 1.53-0.329 0.541-0.63-0.994-0.59-1.484 0.207-2.53 0.542-0.711 1.262-1.001 1.601-0.647 0.799 0.836-0.012 5.249-0.994 5.398-0.411 0.063-0.466-0.052-0.12-0.255zm-184.38-27.235c-1.172-3.313-0.828-4.077 0.6-1.337 0.704 1.352 1.027 2.684 0.718 2.963-0.309 0.28-0.902-0.451-1.318-1.626zm-12.702-3.456c-1.3062-2.312-1.1856-2.529 0.9236-1.665 1.3833 0.567 2.0475 1.551 1.5625 2.31-0.4657 0.729 0.1926 0.613 1.4589-0.256 2.0362-1.397 2.2223-1.37 1.6817 0.238-0.9086 2.703-3.9282 2.38-5.6267-0.627zm0.9471-4.174c0.0471-0.868 0.5676-2.652 1.1558-3.96 0.894-1.99 1.0818-1.704 1.1602 1.765 0.0515 2.276-0.4661 4.056-1.1516 3.956-0.6869-0.099-1.2115-0.892-1.1644-1.761zm131.03 18.406c-2.432-0.888-6.722-2.634-9.539-3.883-2.848-1.262-6.33-2.483-7.716-2.7-1.394-0.219-2.67-0.885-2.829-1.479-0.417-1.555-35.595-7.7-36.488-6.274-0.427 0.681-5.031 0.41-12.185-0.731-8.222-1.312-12.087-1.501-12.375-0.586-0.591 1.871-10.377 0.167-15.077-2.675-2.158-1.304-6.237-2.871-9.075-3.479-2.864-0.613-5.23-1.71-5.234-2.432-0.017-2.908-5.513-9.292-8.674-10.036-2.208-0.52-3.3012-1.477-3.3039-2.899-0.0026-1.347 0.8849-1.891 2.4259-1.491 1.329 0.346 2.412 1.107 2.413 1.693s1.081 0.903 2.394 0.704c1.611-0.244 2.375 0.204 2.377 1.389 1e-3 0.962 1.067 2.942 2.364 4.395 1.291 1.447 2.345 3.294 2.346 4.11 5e-3 2.886 15.158 5.651 45.772 8.562 29.048 2.762 41.662 5.463 49.693 10.346 1.842 1.119 5.445 2.381 7.995 2.807 2.526 0.422 4.7 1.256 4.852 1.857 0.462 1.82 5.42-0.2 7.671-3.096 2.294-2.951 3.464-2.87 20.47 1.295 6.8 1.665 8.518 1.821 9.142 0.85 1.247-1.941 3.696-3.112 4.159-2 0.548 1.318 4.165 1.893 4.706 0.76 0.234-0.492 1.814-0.6 3.498-0.242 1.673 0.355 3.646 0.483 4.393 0.287 1.037-0.272 1.436 0.117 1.714 1.664 0.295 1.639 0.758 2.029 2.47 2.086 1.948 0.066 4.27 2.128 4.273 3.779 1e-3 0.384-1.504 0.452-3.358 0.15-2.87-0.468-3.564-0.914-4.391-2.841-1.161-2.701-2.149-3.007-6.958-2.113-2.003 0.372-4.485 0.29-5.505-0.188-1.289-0.604-1.981-0.473-2.242 0.426-0.581 2.007-5.669 1.703-15.629-1.001-11.128-3.021-14.939-3.087-15.926-0.185-0.953 2.803-2.716 5.285-3.559 5.001-0.384-0.129-2.654-0.95-5.064-1.83zm58.021 8.25c0.384-0.353 0.62-1.365 0.525-2.249-0.096-0.885 0.083-1.568 0.396-1.518 0.911 0.144 0.247 3.97-0.73 4.2-0.591 0.139-0.655-7e-3 -0.191-0.433zm7.814-3.116c-4e-3 -1.713 0.208-3.078 0.471-3.034 0.262 0.043 0.453 1.473 0.426 3.178-0.028 1.704-0.239 3.07-0.47 3.035-0.231-0.036-0.423-1.466-0.427-3.179zm-187.09-28.607c-1e-3 -0.995 0.492-2.045 1.096-2.333 0.602-0.288 0.812 0.557 0.466 1.878-0.734 2.809-1.558 3.052-1.562 0.455zm-9.5597-6.677c0.0096-2.799 0.2642-3.751 0.5655-2.117 0.301 1.632 0.2931 3.919-0.0175 5.084-0.311 1.167-0.5577-0.168-0.548-2.967zm190.32 22.774c3e-3 -2.223 0.151-2.575 0.614-1.462 0.798 1.917 0.804 4.646 0.01 4.504-0.345-0.062-0.626-1.43-0.624-3.042zm-189.72-32.945c-0.5163-0.623-0.9411-2.299-0.9432-3.724-0.0029-1.874 0.3747-2.133 1.3651-0.938 0.7505 0.905 1.1726 2.577 0.9394 3.717-0.2335 1.141-0.8458 1.567-1.3613 0.945zm6.5798-3.848c0.0564-1.456 0.3457-1.698 0.7372-0.62 0.3539 0.974 0.3122 2.051-0.0927 2.392-0.4054 0.343-0.6957-0.455-0.6445-1.772zm10.452-1.484c-1.134-1.12-1.783-2.276-1.441-2.566 0.343-0.29-0.512-1.062-1.904-1.72-1.903-0.899-2.374-0.702-1.86 0.781 0.377 1.09 0.196 1.572-0.403 1.071-0.6-0.502-1.366-0.261-1.702 0.539-0.41 0.975-0.645 0.808-0.711-0.508-0.139-2.766 2.267-4.432 4.465-3.111 1.12 0.674 1.536 0.531 1.062-0.363-0.43-0.81 0.151-2.044 1.289-2.74 1.902-1.162 1.923-1.103 0.285 0.771-1.637 1.873-1.598 2.006 0.467 1.618 1.898-0.357 2.009-0.183 0.745 1.158-1.947 2.063 0.394 2.592 2.711 0.623 1.501-1.274 1.69-1.109 1.548 1.348-0.122 2.117-0.732 2.568-2.506 1.842-1.899-0.777-1.783-0.481 0.59 1.502 1.757 1.47 2.226 2.313 1.175 2.114-0.967-0.184-2.681-1.244-3.81-2.359zm-17.985-4.93c-0.0016-1.051 0.5426-1.802 1.208-1.669 0.664 0.133 0.8854 1.034 0.4928 2.004-0.393 0.971-0.9359 1.723-1.2061 1.671-0.2704-0.053-0.4931-0.956-0.4947-2.006zm188.76 37.907c0-0.174 0.638-0.56 1.417-0.855 0.905-0.343 1.055-0.626 0.418-0.79-1.202-0.309-1.361-2.741-0.163-2.495 0.461 0.095 0.838 0.533 0.839 0.975 0 0.443 0.263 0.624 0.582 0.404s0.784 0.116 1.032 0.744c0.296 0.747 0.181 0.845-0.334 0.283-0.568-0.62-0.68-0.351-0.399 0.966 0.325 1.529 0.086 1.763-1.494 1.455-1.042-0.203-1.898-0.512-1.898-0.687zm-190.64-42.733c-0.4426-0.815 0.0629-0.925 1.1823-0.26 2.1683 1.288 2.5646 2.279 0.7685 1.916-0.6486-0.131-1.5268-0.876-1.9508-1.656zm197.51 37.643c-0.351-1.019-0.48-2.424-0.287-3.118 0.265-0.951 0-1.242-1.083-1.184-0.792 0.043-1.024-0.091-0.513-0.297 0.51-0.206 1.325-0.735 1.812-1.174 0.653-0.591 0.774-0.559 0.467 0.122-0.229 0.507-4e-3 1.507 0.499 2.222 0.502 0.714 0.909 1.746 0.905 2.296s-0.264 0.358-0.578-0.428c-0.86-2.153-1.455-0.773-0.66 1.538 0.378 1.1 0.549 1.971 0.381 1.936-0.168-0.034-0.592-0.895-0.943-1.913zm-189.77-41.442c-1.1269-3.239-0.7544-4.269 1.6804-4.66 1.4951-0.241 2.1409 0.023 1.6859 0.684-0.4072 0.593-1.6705 0.884-2.8103 0.647-1.7428-0.363-1.7905-0.181-0.2915 1.114 0.9811 0.848 2.3567 1.309 3.0588 1.027 0.7-0.281 0.523 0.283-0.3939 1.255-2.0035 2.123-2.1687 2.12-2.9294-0.067zm192.19 40.554c-1e-3 -0.732 0.271-1.272 0.604-1.2 0.334 0.072 0.607 0.728 0.609 1.458 1e-3 0.73-0.27 1.271-0.603 1.201-0.334-0.07-0.608-0.727-0.61-1.459zm-6.906-2.534c0.451-0.163 0.99-0.015 1.198 0.329 0.207 0.342-0.16 0.476-0.819 0.296-0.73-0.199-0.879-0.444-0.379-0.625zm-2.048-2.271c-0.346-1.365-0.273-1.453 0.353-0.428 0.432 0.707 0.627 1.478 0.434 1.714-0.194 0.236-0.548-0.342-0.787-1.286zm2.202-3.907c0.028-1.042 0.175-1.222 0.377-0.458 0.181 0.691 0.161 1.462-0.046 1.714s-0.356-0.313-0.331-1.256zm-180.85-43.085c-0.414-0.785-0.174-1.293 0.532-1.128 0.704 0.164 1.28 0.86 1.281 1.548 1e-3 0.687-0.237 1.194-0.53 1.127s-0.871-0.763-1.283-1.547zm-5.4878-3.435c-0.0116-0.846 0.9939-1.856 2.2302-2.241 1.6753-0.523 2.2366-0.255 2.2386 1.062 1e-3 0.968-0.5157 1.308-1.1502 0.754-0.6358-0.554-1.6373-0.341-2.2254 0.476-0.7341 1.02-1.0787 1.004-1.0932-0.051zm189.05 44.286c0.211-0.256 0.816-0.455 1.345-0.443 0.528 0.012 0.789 0.231 0.58 0.486s-0.812 0.454-1.342 0.443c-0.531-0.011-0.793-0.23-0.583-0.486z" fill="#3c4393"/>
   <path d="m104.52 474.61c-0.953-0.744-1.911-2.966-2.126-4.937-0.375-3.442-0.316-3.478 1.455-0.88 1.729 2.535 1.799 2.435 1.197-1.711l-0.64-4.411 1.381 3.823c1.18 3.267 1.056 4.022-0.878 5.333-2.18 1.478-2.166 1.526 0.346 1.229 1.875-0.222 2.419 0.15 1.964 1.335-0.741 1.931-0.528 1.913-2.699 0.219zm164.71 20.631c0.477-0.208 1.046-0.105 1.266 0.229 0.219 0.334-0.169 0.505-0.865 0.38-0.771-0.139-0.929-0.378-0.401-0.609zm5.883 0.726c0.465-0.207 1.02-0.106 1.234 0.224 0.214 0.329-0.164 0.498-0.843 0.376-0.752-0.136-0.906-0.372-0.391-0.6zm4.516-1.223c0.213-1.125 0.6-2.025 0.861-2 0.26 0.025 0.695 0.074 0.966 0.11 0.272 0.036 0.495 0.854 0.497 1.818 3e-3 1.43-0.167 1.533-0.924 0.559-0.756-0.973-0.86-0.921-0.554 0.281 0.22 0.864 0.042 1.437-0.428 1.379-0.533-0.065-0.675-0.792-0.418-2.147zm-166.37-26.198c-0.495-1.252-0.817-2.682-0.715-3.176 0.101-0.494-0.399-0.98-1.114-1.081-0.716-0.101-1.019-0.924-0.672-1.826 0.381-0.99-0.317-2.037-1.767-2.649-1.527-0.643-2.086-1.526-1.519-2.4 0.546-0.841 0.402-1.136-0.369-0.757-2.467 1.216-5.34-1.466-4.771-4.48 0.437-2.318 0.223-2.652-1.105-1.725-1.3509 0.943-1.6571 0.217-1.6635-3.952-0.0043-2.809 0.5375-5.361 1.2035-5.669 2.038-0.944 7.466 3.586 9.47 7.864 1.591 3.397 2.69 4.223 6.917 5.219 2.732 0.645 6.68 2.214 8.783 3.485 4.621 2.794 14.393 4.469 14.979 2.616 0.288-0.915 4.153-0.726 12.375 0.586 7.154 1.142 11.758 1.412 12.185 0.731 0.893-1.426 36.071 4.719 36.488 6.274 0.159 0.594 1.435 1.26 2.829 1.479 1.386 0.217 4.868 1.428 7.716 2.679 2.817 1.238 7.438 3.08 10.268 4.095 5.456 1.957 6.194 1.637 7.894-3.362 0.987-2.902 4.798-2.836 15.926 0.185 9.96 2.704 15.048 3.008 15.629 1.001 0.261-0.899 0.953-1.03 2.242-0.426 1.02 0.478 3.522 0.538 5.547 0.138 4.419-0.873 5.653-0.466 7.02 2.283 0.802 1.611 1.84 2.287 4.372 2.854 3.305 0.741 3.56 1.032 2.931 3.323-0.364 1.326-2.766 0.626-2.769-0.816-1e-3 -0.438-0.268-0.839-0.594-0.891-0.327-0.052-0.483 0.737-0.347 1.752 0.135 1.015-0.038 1.802-0.386 1.749-0.348-0.052-0.456 0.339-0.24 0.869 0.216 0.529 0.087 0.917-0.287 0.862-0.375-0.055-1.143 1.222-1.708 2.841-0.73 2.093-1.587 3.038-2.949 3.244-1.063 0.16-30.284-3.443-69.938-8.666-84.845-11.176-91.017-12.114-91.861-14.253zm162.68 18.401c-0.763-1.963-0.946-1.396-0.318 0.992 0.222 0.847 0.539 1.366 0.704 1.154s-8e-3 -1.177-0.386-2.146zm5.021 4.198c-2e-3 -0.853 2.611-3.772 3.471-3.883 0.316-0.041 1.131-0.289 1.808-0.55 0.675-0.261 1.022-0.176 0.773 0.188s-0.109 1.351 0.311 2.191c0.662 1.324 0.631 1.357-0.24 0.248-0.834-1.063-1.071-1.041-1.39 0.129-0.285 1.044-0.593 1.133-1.188 0.338-0.598-0.8-1.031-0.656-1.684 0.564-0.904 1.69-1.859 2.091-1.861 0.775zm-180.33-27.154c-1.1015-0.817-3.0293-1.794-4.2849-2.168-2.3845-0.712-2.9448-1.526-2.8821-4.199 0.0205-0.87 0.8819-0.314 1.9134 1.232 2.2268 3.337 2.026 3.281 4.9316 1.39 1.27-0.826 1.917-1.079 1.442-0.565-0.476 0.515-0.318 2.071 0.35 3.453 1.375 2.844 1.282 2.898-1.47 0.857zm186.7 3.368c-0.011-4.409 0.088-6.304 0.221-4.212 0.133 2.091 0.142 5.695 0.021 8.013-0.122 2.318-0.231 0.608-0.242-3.801zm-188.92-32.083c0.0565-1.456 0.3458-1.7 0.7373-0.624 0.3539 0.972 0.3122 2.049-0.0927 2.393-0.4054 0.345-0.6957-0.451-0.6446-1.769zm180.92 22.932c-0.201-0.505-0.124-1.083 0.171-1.283 0.296-0.2 0.538 0.23 0.54 0.954 3e-3 1.526-0.196 1.619-0.711 0.329zm-190.79-45.722c-0.0026-1.758 0.2824-2.414 0.6331-1.459 0.3504 0.953 0.3525 2.389 0.0048 3.192-0.3481 0.804-0.6353 0.024-0.6379-1.733z" fill="#32378f"/>
   <path d="m88.465 476.7c0.0114-1.589 0.3053-1.741 1.0151-0.525 0.7839 1.343 30.363 5.184 119.11 15.693l81.949 9.703-82.627-9.255c-111.88-12.531-119.46-13.498-119.44-15.616zm0.2175-6.047c0.0225-2.106 0.304-2.777 0.6251-1.492 0.3209 1.283 0.3025 3.004-0.0409 3.826-0.3437 0.822-0.6067-0.227-0.5842-2.334zm20.072 4.628c-0.331-0.6-0.852-2.48-1.157-4.178-0.899-4.999-2.144-7.698-3.294-7.122-0.591 0.297-1.077-0.039-1.078-0.747-1e-3 -0.709-1.771-2.12-3.9466-3.143l-3.9935-1.877 4.2974 1.256c5.2167 1.524 9.6187 7.042 9.6267 11.992l5e-3 3.64 159.81 20.289-68.345-8.141c-46.696-5.563-91.596-11.37-91.927-11.969zm162.42 20.214c0.45-0.2 1.186-0.109 1.635 0.202 0.448 0.31 0.083 0.473-0.815 0.364-0.901-0.111-1.272-0.365-0.82-0.566zm5.835 0.719c0.439-0.198 1.157-0.109 1.595 0.197 0.438 0.305 0.081 0.468-0.795 0.361-0.879-0.108-1.24-0.359-0.8-0.558zm-182.32-24.224c-1.3807-1.128-0.9745-1.199 1.5592-0.275 2.0325 0.742 4.1253 0.698 5.2213-0.104 1.519-1.11 1.697-1.006 1.066 0.622-0.847 2.188-5.0131 2.074-7.8465-0.243zm187.28 23.76c-0.922-2.251 0.718-6.333 2.425-6.058 0.341 0.055 0.133 0.443-0.463 0.863-0.598 0.422-1.086 1.76-1.084 2.972 4e-3 1.738 0.327 2.245 1.524 2.396 0.831 0.105 1.68-0.191 1.888-0.655s0.657-0.808 0.999-0.763c0.341 0.044 0.208 0.628-0.296 1.298-0.987 1.314-4.444 1.287-4.993-0.053zm-169.05-24.472c0.314-0.291 46.62 5.52 94.514 11.811l69.575 9.139 0.789-2.624c0.432-1.44 1.588-3.466 2.565-4.502 0.972-1.031 1.641-2.069 1.488-2.311-0.152-0.241 0.357-0.309 1.129-0.151 1.342 0.275 1.41-0.086 1.721-9.068l0.323-9.339 0.141 9.584c0.131 8.881 0.051 9.607-1.1 9.96-1.99 0.61-4.776 3.982-5.633 6.84l-0.792 2.64-70.203-9.11c-48.436-6.286-94.832-12.578-94.517-12.869zm166.8 20.594c-0.038-2.053 3.529-5.984 5.083-5.624 1.348 0.312 1.355 0.344 0.122 0.514-1.354 0.187-2.713 1.648-4.288 4.624-0.542 1.025-0.903 1.217-0.917 0.486zm-186.18-25.84c-0.287-4.134 6.154-3.916 9.5697 0.263 1.791 2.192 1.741 2.236-0.701 0.614-3.5219-2.34-7.3731-2.793-8.1449-0.934-0.3917 0.943-0.6608 0.964-0.7238 0.057zm16.25-1.476c-1.789-2.702-5.216-6.144-7.623-7.644l-4.4227-2.756 0.689-8.707 0.6875-8.687 0.3715 7.608c0.2042 4.181 0.3453 7.901 0.3136 8.268-0.0316 0.368 2.2281 2.296 5.0011 4.269 3.102 2.209 5.708 5.27 6.898 8.088 1.05 2.488 1.773 4.498 1.61 4.477-0.164-0.022-1.746-2.228-3.525-4.916zm175.85 26.162c-0.485-1.199 0.332-1.085 1.537 0.211 0.793 0.852 0.777 0.971-0.115 0.862-0.571-0.07-1.211-0.553-1.422-1.073zm-203.49-35.202c0.0595-1.494 0.3637-1.754 0.7751-0.663 0.3719 0.985 0.328 2.09-0.0977 2.457-0.4262 0.366-0.7313-0.441-0.6774-1.794zm205.2 25.197c-5e-3 -3.429 0.103-4.704 0.239-2.835 0.137 1.869 0.14 4.672 9e-3 6.232-0.132 1.56-0.244 0.032-0.248-3.397zm-193.38-43.249 0.0209-19.274h4.0853c2.2252 0 5.3852-1.03 7.0282-2.282 2.274-1.733 2.778-1.79 2.164-0.247-0.942 2.367-6.562 4.457-10.097 3.722-2.3763-0.493-2.5125 0.38-2.8584 18.408l-0.3637 18.952zm-5.4603 12.605c0.0583-1.48 0.3566-1.735 0.7602-0.651 0.3648 0.979 0.3218 2.073-0.0957 2.432-0.418 0.36-0.7173-0.442-0.6645-1.781zm0.3211-13.258c-0.0089-5.974 0.2044-8.376 0.474-5.341 0.2693 3.033 0.2766 7.916 0.0162 10.854-0.2605 2.941-0.4812 0.461-0.4902-5.513zm195.64 25.073c-0.18-1.022-0.075-1.807 0.234-1.744s0.562 0.919 0.565 1.903c2e-3 0.985-0.103 1.769-0.234 1.743-0.13-0.025-0.384-0.881-0.565-1.902zm-196-39.943c0.0583-1.477 0.3566-1.719 0.7602-0.618 0.3648 0.995 0.3218 2.087-0.0957 2.428-0.418 0.341-0.7173-0.473-0.6645-1.81zm9.8427 1.537c-0.0015-0.998 6.2641-1.493 7.0201-0.566 0.199 0.244-1.285 0.704-3.307 1.024-2.0362 0.323-3.7122 0.118-3.7131-0.458zm-16.218-6.69c0.0595-1.491 0.3636-1.733 0.775-0.618 0.3719 1.007 0.328 2.109-0.0976 2.45-0.4262 0.342-0.7313-0.483-0.6774-1.832zm197.49 38.913-1.545-2.825 1.75 2.573c0.958 1.407 1.738 2.686 1.739 2.848 1e-3 0.707-0.509 0.026-1.944-2.596zm4.904 2.01c0.425-0.16 1.12-0.014 1.545 0.323 0.423 0.335 0.078 0.466-0.77 0.29-0.851-0.177-1.201-0.454-0.775-0.613zm-2.69-2.268c-1.174-1.599-1.167-1.614 0.193-0.378 0.775 0.705 1.408 1.468 1.408 1.697 2e-3 0.688-0.322 0.422-1.601-1.319zm-193.22-52.858-0.2505-8.045 115.21 28.239 80.767 19.798-194.59-46.414-0.4426 7.226-0.4432 7.236zm5.5039 6.475c-0.5872-1.688-0.3864-1.845 0.7951-0.625 0.8659 0.893 2.403 2.122 3.415 2.731 1.2515 0.752 1.0029 0.951-0.7868 0.625-1.4494-0.263-2.9923-1.492-3.4233-2.731zm189.05 42.804c-0.182-0.464 0.362-0.498 1.207-0.077 0.841 0.419 1.528 0.914 1.528 1.103 1e-3 0.691-2.414-0.212-2.735-1.026zm-120.64-33.361c25.451 5.76 62.612 14.416 82.973 19.302 18.822 4.518 3.531 1.082-38.298-8.628-49.554-11.502-72.567-16.987-44.675-10.674zm123.82 24.384c0.759-0.029 1.997 0.272 2.751 0.666 0.751 0.393 0.137 0.417-1.371 0.053-1.517-0.366-2.141-0.691-1.38-0.719zm-227.02-94.095c3.9202-1.803 6.5107-1.547 4.2803 0.409-0.832 0.729-1.1098 1.841-0.6161 2.468 0.4929 0.626-0.891 0.597-3.0876-0.069l-4.0304-1.22zm9.4985 2.843c-0.0044-3.106 4.6378-2.139 8.2597 1.683 3.4491 3.64 2.787 4.213-2.9456 2.519-4.4194-1.306-5.3109-2.008-5.3141-4.202z" fill="#2a2d6e"/>
  </g>
  <g transform="matrix(1.4839 0 0 1.5425 -1216 -1646.2)" fill="#fff" style="shape-inside:url(#rect133353);white-space:pre" aria-label="Adelhauser-Strasse">
   <path d="m1072.9 1235.4 2.1 0.19c0.86 0.08 1.66 0.25 2.41 0.5 0.8 0.26 1.2 0.96 1.2 2.12 0.36 2.48-0.81 3.57-3.51 3.26-0.75-0.12-1.46-0.25-2.11-0.37-0.6-0.11-1.11-0.16-1.51-0.13-0.4-0.04-0.58 0.1-0.53 0.41 0.51 1.82 1.05 3.86 1.61 6.12 0.61 2.25 1.27 4.51 1.98 6.77 1.82 5.6 3.53 9.64 5.14 12.15-0.85 1.22-1.84 2.21-2.99 2.98-1.1 0.77-1.7 1.16-1.8 1.15-0.05 0-0.1-0.04-0.15-0.1l-10.75-28.21-20.95 4.41-0.76 3.85c-1.48 7.03-3.16 11.88-5.02 14.55-0.31 0.6-0.96 0.61-1.95 0.04-1.67-0.88-2.51-1.57-2.51-2.07 0-0.12 0.54-1.89 1.62-5.3 1.09-3.41 2.17-6.85 3.25-10.31 1.14-3.52 2.29-7.19 3.47-11 1.23-3.81 2.39-7.43 3.46-10.87s2.04-6.51 2.91-9.21c0.87-2.76 1.48-4.75 1.84-5.95 0.35-1.26 0.58-2.36 0.68-3.27 0.15-0.98 0.35-1.79 0.61-2.45 0.51-1.37 1.79-1.94 3.83-1.72 2.21 1.71 3.9 3.84 5.07 6.36 1.23 2.47 2.26 5.1 3.08 7.89 0.87 2.8 1.71 5.62 2.53 8.46 0.82 2.85 1.92 5.47 3.29 7.87 0.45 0.9 1.13 1.42 2.04 1.57 0.91 0.14 1.71 0.25 2.42 0.31zm-19.08-21.78c-0.4 3.73-1.31 7.51-2.73 11.33-1.43 3.83-2.58 6.82-3.45 8.97-0.86 2.09-1.61 4.04-2.22 5.85 3.51 0.31 7.79-0.55 12.84-2.57 1.27-0.56 2.49-1.07 3.66-1.51-2.43-12.62-5.13-19.98-8.1-22.07z"/>
   <path d="m1117.5 1200.3c0.01 5.75-0.11 11.36-0.38 16.84-0.22 5.43-0.45 10.76-0.67 16.01-0.17 5.2-0.25 10.76-0.23 16.69 0.02 5.88 0.37 12.14 1.07 18.78 0 1.38-0.21 2.35-0.64 2.92-0.38 0.57-1.06 0.82-2.02 0.75-2.26-0.17-3.41-2.6-3.42-7.29l-0.01-2.97c-6.87 5.84-12.71 8.59-17.52 8.23-1.92-0.14-3.9-0.87-5.93-2.17-1.99-1.31-3.88-3.8-5.68-7.48-0.25-1.48-0.38-2.99-0.39-4.51 0-1.52 0.21-3.34 0.66-5.43 0.49-2.15 1.45-4.33 2.88-6.51 1.48-2.19 3.26-4.06 5.32-5.64 4.52-3.34 9.39-4.76 14.61-4.27 2.23 0.21 4.36 0.83 6.4 1.86-0.01-1.08 0.04-2.97 0.12-5.66 0.14-2.69 0.28-5.53 0.41-8.52 0.26-7.77 0.44-12.35 0.53-13.72 0.1-1.43 0.21-2.61 0.35-3.56 0.19-1 0.46-1.84 0.79-2.52 0.72-1.42 1.97-2.03 3.75-1.83zm-30.38 55.51c0.01 4.81 1.43 7.32 4.24 7.54 0.45 0.04 0.94 0.02 1.48-0.06 2.02 0.16 4.49-0.38 7.43-1.59 5.54-2.27 8.91-4.35 10.11-6.23l-0.04-11.99c-0.01-2.11-1.39-3.28-4.15-3.53-0.34-0.1-0.81-0.17-1.39-0.22-0.53-0.05-1.39 0.02-2.55 0.22-1.18 0.2-2.49 0.62-3.96 1.27-1.46 0.66-2.91 1.5-4.33 2.52-3 2.22-5.06 4.96-6.19 8.21-0.44 1.24-0.66 2.53-0.65 3.86z"/>
   <path d="m1136 1267.6c4.14 0.33 10.33-1.55 18.53-5.6 0.5 0.04 0.92 0.31 1.25 0.81 0.32 0.44 0.48 0.95 0.48 1.53-1.83 3.85-5.36 6.69-10.61 8.53-5.28 1.85-10.24 1.87-14.87 0.04-5.28-2.13-8.51-6.11-9.68-11.94-0.1-1.14-0.15-2.67-0.16-4.58 0-1.92 0.37-4.39 1.13-7.44 0.8-3.09 2.15-5.95 4.04-8.58 1.9-2.63 4.12-4.62 6.67-5.99 2.54-1.36 5.25-1.9 8.11-1.62 2.71 0.26 5.75 1.73 9.11 4.41 1.58 1.27 2.83 2.65 3.76 4.14 0.93 1.5 1.4 2.98 1.4 4.45 0.01 0.41-0.02 0.82-0.06 1.23-0.08 3.57-1.44 5.71-4.07 6.43-1.16 0.31-2.51 0.4-4.05 0.27l-10.11-1.4c-3.39-0.29-5.99 0.4-7.79 2.1-1.04 0.92-1.77 2.38-2.19 4.37 1.2 5.52 4.25 8.46 9.11 8.84zm12.41-26.34c-1.03-1.04-2.1-1.82-3.22-2.33-1.12-0.52-2.06-0.82-2.81-0.89s-1.96 0.15-3.65 0.64c-1.69 0.43-3.2 0.98-4.51 1.63-3.26 1.6-4.89 3.44-4.88 5.53 3.79 0.75 6.62 1.21 8.5 1.38 5.21 0.46 8.7 0.21 10.52-0.75 1.11-0.49 1.66-1.17 1.66-2.06 0-1.06-0.54-2.11-1.61-3.15z"/>
   <path d="m1161.6 1241.6c-0.1-3.17-0.21-5.99-0.31-8.46-0.1-2.53-0.17-4.38-0.22-5.55 0-1.23-0.38-4.23-1.13-8.99 0.41-0.66 0.8-1.29 1.16-1.9 0.41-0.6 0.98-0.86 1.72-0.78 1.6 0.17 2.86 8.92 3.79 26.23 0.49 10.02 0.75 20.02 0.78 30 0.01 2.69-1.44 3.92-4.37 3.7l-0.55-0.13c-0.01-3.04-0.09-6.94-0.25-11.69-0.15-4.75-0.28-8.89-0.38-12.41-0.06-3.51-0.14-6.86-0.24-10.02z"/>
   <path d="m1202.9 1277.6c-0.39 0.94-1.42 1.35-3.09 1.23-1.63-0.12-2.45-0.96-2.46-2.51-0.02-6.78-0.15-11.44-0.38-13.99-0.42-5.6-1.27-8.67-2.55-9.18-3.2-1.09-5.83-1.73-7.88-1.91-2.01-0.18-3.69 0.48-5.03 1.99-1.3 1.45-2.3 4-3.01 7.65-0.66 3.6-1.14 8.73-1.44 15.38l-5.22-0.39c0.08-3.32 0.11-6.4 0.1-9.25s-0.06-6.23-0.17-10.14c-0.1-3.97-0.23-8.29-0.38-12.96-0.25-5.38-0.38-9.9-0.39-13.57-0.01-3.73 0.16-7.12 0.51-10.17 0.45-1.06 1.11-1.54 1.97-1.45 1.04 0.11 1.85 0.69 2.45 1.74 0.59 0.99 0.9 1.87 0.95 2.63l-0.29 14.33c0.02 5.4 0.24 9.46 0.65 12.17 4.04-3.12 8.21-4.47 12.49-4.08 1.38 0.13 2.85 0.41 4.4 0.84 3.32 2.55 5.49 5.12 6.51 7.74 0.49 1.36 0.81 2.79 0.94 4.29 0.14 1.5 0.23 3.2 0.28 5.1 0.29 6.55 0.64 11.39 1.04 14.51z"/>
   <path d="m1230.8 1266.8c-3.17 6.41-7.45 10.21-12.82 11.38-1.26 0.25-2.4 0.33-3.44 0.26-1-0.08-1.85-0.14-2.54-0.2-0.66-0.1-1.4-0.3-2.22-0.59-0.83-0.29-1.6-0.72-2.3-1.29-1.62-1.32-2.44-3.07-2.45-5.25-0.17-1.04-0.27-2.19-0.27-3.45 0-1.32 0.21-3.02 0.64-5.1s1.21-4.3 2.34-6.65c1.17-2.36 2.58-4.48 4.22-6.39 3.42-4.01 7.1-6.45 11.06-7.32 1.16-0.22 2.21-0.29 3.15-0.2 0.98 0.09 1.86 0.26 2.63 0.5 2.47 0.24 4.14 2.62 5 7.15 0.57 2.87 0.9 6.84 1 11.91 0.15 5.02 0.26 8.91 0.36 11.68 0.14 2.71 0.42 5.21 0.85 7.49l-3.75-0.28c-0.18-1.54-0.31-2.9-0.4-4.09s-0.18-2.3-0.27-3.32c-0.22-2.38-0.48-4.46-0.79-6.24zm-0.3-13.14c-0.01-3.27-1.23-5.02-3.67-5.24-0.3-0.09-0.6-0.14-0.9-0.17-3.13-0.29-6.44 1.39-9.92 5.05-1.64 1.68-3.04 3.6-4.21 5.78-1.73 3.1-2.59 5.94-2.58 8.51 0.01 3.37 1.5 5.48 4.46 6.34 3.89 0.19 7.59-1.85 11.1-6.1 1.49-1.85 2.73-3.9 3.7-6.13 1.36-2.99 2.03-5.67 2.02-8.04z"/>
   <path d="m1238.6 1270.3c0-0.9-0.07-2.14-0.2-3.72-0.09-1.64-0.18-3.42-0.28-5.34-0.09-1.91-0.14-3.86-0.14-5.82-0.01-1.97 0.11-3.76 0.36-5.36 0.53-3.6 1.67-5.32 3.39-5.15 1.18 0.56 1.96 1.19 2.34 1.9 0.43 0.71 0.64 1.57 0.64 2.58 0.01 0.95-0.18 2.13-0.55 3.56-1.37 4.75-2.05 9.09-2.04 13.01 0.01 1.29 0.08 2.67 0.21 4.14 0.68 3.81 3 5.86 6.93 6.17 2.05 0.16 3.98-0.16 5.8-0.96 3.48-1.45 5.82-3.29 7.05-5.52 0.36-2.52 0.54-4.72 0.53-6.61-0.01-1.94-0.07-3.66-0.2-5.17-0.09-1.5-0.22-3.15-0.39-4.94-0.13-1.84-0.22-3.84-0.27-6.01 0.53-0.28 1.05-0.4 1.54-0.35 0.54 0.05 1.07 0.46 1.61 1.23 0.57 0.77 1.05 2.17 1.43 4.2 0.41 2.03 0.69 4.4 0.82 7.12 0.13 2.67 0.2 5.44 0.21 8.31 0.05 2.88 0.08 5.68 0.09 8.38 0.01 2.66 0.1 4.96 0.27 6.91-0.48 0.57-0.95 0.84-1.4 0.8-1.64-0.12-2.86-2.43-3.66-6.92-0.53 0.57-1.44 1.25-2.71 2.03-2.72 1.8-5.95 2.89-9.7 3.27-0.7 0.06-1.5 0.06-2.37-0.01-0.88-0.06-1.99-0.37-3.34-0.92-1.3-0.54-2.55-1.68-3.73-3.39-1.19-1.72-1.93-4.2-2.24-7.42z"/>
   <path d="m1291.9 1264.4c4.36 0.38 6.55 2.09 6.56 5.13 0.01 2.29-1.19 4.85-3.6 7.7-3.6 4.24-8.48 7.51-14.66 9.79-0.29-0.03-0.61-0.43-0.98-1.23-0.32-0.79-0.59-1.39-0.79-1.79-0.16-0.45-0.29-0.73-0.37-0.85 4.63-1.73 8.42-3.96 11.37-6.68 1.99-1.8 2.97-3.33 2.97-4.58 0-1.26-1.18-1.98-3.54-2.18s-5.82 0.28-10.42 1.44c-2.1-0.29-3.93-1.46-5.48-3.51-1.35-1.83-2.03-3.59-2.03-5.31-0.01-1.76 0.35-3.33 1.08-4.7 0.73-1.42 1.7-2.71 2.91-3.87 1.21-1.15 2.63-2.17 4.24-3.07 3.94-2.2 8.01-3.1 12.2-2.7 1.23 0.12 2.43 0.4 3.58 0.84 0.95 0.09 1.51 0.71 1.67 1.87s0.25 3.04 0.26 5.65c-2.35-1.68-4.99-2.66-7.94-2.94-3.69-0.34-6.74 0.39-9.15 2.2-2.5 1.75-3.78 4.22-3.85 7.41 0 1.54 0.84 2.38 2.49 2.52l4.42-0.28c3.77-0.77 6.78-1.06 9.06-0.86z"/>
   <path d="m1314.1 1281.5c3.41 0.27 8.51-1.48 15.27-5.21 0.42 0.04 0.77 0.28 1.03 0.73 0.27 0.39 0.41 0.85 0.41 1.39-1.51 3.51-4.43 6.11-8.76 7.82-4.35 1.71-8.43 1.75-12.25 0.12-4.35-1.9-7.02-5.49-7.98-10.77-0.08-1.03-0.13-2.42-0.13-4.16-0.01-1.73 0.3-3.98 0.92-6.75 0.66-2.81 1.77-5.42 3.32-7.82 1.56-2.4 3.39-4.23 5.49-5.48 2.1-1.26 4.32-1.77 6.68-1.54 2.24 0.21 4.75 1.53 7.52 3.93 1.31 1.14 2.34 2.38 3.11 3.74 0.77 1.35 1.16 2.69 1.16 4.03 0 0.37-0.02 0.74-0.05 1.11-0.07 3.25-1.19 5.21-3.36 5.88-0.96 0.29-2.07 0.38-3.34 0.27l-8.34-1.2c-2.8-0.24-4.94 0.41-6.41 1.96-0.86 0.85-1.46 2.18-1.81 3.99 1 5 3.51 7.65 7.52 7.96zm10.21-24.01c-0.85-0.93-1.73-1.63-2.66-2.09-0.92-0.47-1.69-0.73-2.31-0.78-0.62-0.06-1.62 0.14-3.01 0.6-1.4 0.41-2.64 0.91-3.72 1.51-2.68 1.48-4.02 3.17-4.02 5.06 3.12 0.66 5.46 1.05 7.01 1.19 4.29 0.38 7.18 0.13 8.67-0.76 0.92-0.45 1.38-1.08 1.37-1.88 0-0.96-0.44-1.91-1.33-2.85z"/>
   <path d="m1361.7 1262c-1.55-1.72-3.54-2.69-5.98-2.92-2.3-0.21-4.43 0.2-6.4 1.23-3.73 1.88-6.29 4.5-7.67 7.88-0.59 1.54-0.89 3.21-0.88 5.01 0 0.32 0 1.22 0.01 2.71 0 1.43 0.2 3.41 0.59 5.93 0.38 2.47 0.58 4.97 0.59 7.52-0.79-0.01-1.43 0.08-1.92 0.25-0.49 0.18-0.9 0.25-1.24 0.23-0.34-0.03-0.65-0.26-0.91-0.71-0.23-0.44-0.5-1.28-0.81-2.53-0.04-0.32-0.11-1.23-0.23-2.73-0.12-1.49-0.28-3.31-0.48-5.46-0.16-2.13-0.35-4.46-0.59-6.98-0.2-2.57-0.4-5.09-0.6-7.55-0.43-5.36-0.77-9.31-1.01-11.83 0-1.28 0.66-1.85 1.99-1.72 0.79 0.07 1.42 0.61 1.87 1.61 0.46 0.95 0.82 2.04 1.09 3.29 0.27 1.19 0.44 2.38 0.52 3.55 0.12 1.18 0.22 2.01 0.29 2.5 4.94-5.8 11.05-8.33 18.32-7.63 0.81 0.08 1.66 0.19 2.54 0.32 0.22-0.03 0.5-0.03 0.83 0.01 0.33 0.03 0.66 0.37 0.99 1.03 0.41 0.78 0.61 1.68 0.62 2.73 0.01 2.62-0.5 4.04-1.53 4.26z"/>
   <path d="m1368.7 1274.3c-1.83-0.16-2.74-0.91-2.75-2.27 0-0.68 0.2-1.13 0.6-1.36 0.44-0.22 1.17-0.39 2.19-0.51 1.05-0.12 2.36-0.32 3.92-0.6 1.59-0.28 3.26-0.47 4.99-0.57 0.72 0.06 1.33 0.3 1.84 0.7 0.72 0.59 1.08 1.24 1.08 1.96 0 0.26-0.08 0.59-0.26 0.99-0.15 0.4-0.54 0.73-1.19 0.99z"/>
   <path d="m1382.5 1285.5c-0.01-0.98 0.26-1.82 0.79-2.5 0.57-0.73 1-1.21 1.29-1.45 0.32-0.28 0.53-0.49 0.64-0.64 0.19 4.72 2.4 7.24 6.59 7.56 3.29 0.26 7.11-0.93 11.45-3.56 3.07-1.79 5.11-3.71 6.15-5.77 0.34-0.63 0.51-1.15 0.51-1.56 0-0.46-0.05-0.82-0.16-1.08l-21.92-9.07c-0.64-0.27-1.27-0.76-1.88-1.49-1.11-1.23-1.67-2.32-1.67-3.25-0.01-3.57 1.73-6.63 5.21-9.18 3.82-2.76 8.91-4.61 15.24-5.55 1.43-0.21 2.5-0.3 3.19-0.28 0.21 0.12 0.52 0.26 0.94 0.4 0.45 0.1 0.9 0.25 1.36 0.44 1.07 0.47 1.52 1.18 1.36 2.13 0 1.73-2.25 2.88-6.77 3.45-5.88 0.7-9.58 1.41-11.06 2.14-1.45 0.74-2.51 1.54-3.18 2.4-0.63 0.86-0.97 1.94-1 3.23 0 0.25 0.41 0.57 1.23 0.96 0.82 0.38 1.79 0.86 2.93 1.43 1.13 0.51 2.6 1.21 4.4 2.09 4.36 2.14 9.67 4.81 15.92 8 0.35 1.15 0.53 2.21 0.53 3.17 0.01 2.69-1.05 5.2-3.18 7.51-2.42 2.61-5.79 4.72-10.12 6.33-3.61 1.31-6.5 1.89-8.66 1.73-1.81-0.14-3.54-0.73-5.18-1.78-1.64-1.06-2.88-2.06-3.71-3-0.82-0.94-1.24-1.88-1.24-2.81z"/>
   <path d="m1425.5 1288.2 0.06-12.1c-0.01-1.91-0.14-3.56-0.38-4.95l-7.96-0.71-0.12-5.26 7.7 0.72-0.07-19.53c0.1-0.44 0.3-0.87 0.6-1.3 0.48-0.65 0.87-0.96 1.17-0.93 0.34 0.04 0.63 0.12 0.87 0.24 0.24 0.13 0.5 0.51 0.77 1.14 0.56 3.38 0.85 8.42 0.87 15.11 0.01 1.66 0.07 3.3 0.17 4.92 1.09-0.1 2.17-0.1 3.25 0 0 0 0.88 0.09 2.63 0.25 0.64 0.06 1.23 0.06 1.76 0.01l-0.13 5.4-7.39-0.97 0.36 26.06c-0.61 0.36-1.13 0.52-1.58 0.49-1.7-0.13-2.56-2.99-2.58-8.59z"/>
   <path d="m1463.1 1271.3c-1.37-1.61-3.14-2.51-5.29-2.71-2.04-0.19-3.92 0.2-5.66 1.18-3.3 1.79-5.56 4.27-6.77 7.45-0.53 1.45-0.79 3.02-0.78 4.72 0 0.3 0 1.14 0.01 2.54 0 1.35 0.18 3.2 0.52 5.57 0.34 2.32 0.51 4.68 0.52 7.07-0.69 0-1.26 0.08-1.69 0.25-0.43 0.16-0.8 0.24-1.1 0.21-0.3-0.02-0.57-0.24-0.8-0.66-0.2-0.41-0.44-1.2-0.71-2.37-0.04-0.3-0.11-1.16-0.21-2.56-0.11-1.41-0.25-3.12-0.42-5.13-0.15-2.01-0.32-4.2-0.53-6.57-0.18-2.41-0.35-4.78-0.53-7.09-0.39-5.04-0.69-8.74-0.9-11.11 0-1.2 0.58-1.74 1.75-1.63 0.7 0.07 1.26 0.57 1.66 1.51 0.4 0.88 0.72 1.91 0.96 3.08 0.24 1.12 0.39 2.23 0.47 3.34 0.1 1.1 0.19 1.89 0.25 2.34 4.36-5.47 9.77-7.88 16.19-7.27 0.72 0.07 1.47 0.17 2.25 0.3 0.19-0.04 0.44-0.04 0.73-0.01s0.59 0.35 0.88 0.97c0.36 0.73 0.54 1.58 0.55 2.57 0.01 2.46-0.44 3.8-1.35 4.01z"/>
   <path d="m1485.6 1287.9c-2.35 5.55-5.51 8.86-9.49 9.92-0.93 0.23-1.78 0.31-2.55 0.25-0.74-0.05-1.36-0.1-1.88-0.14-0.48-0.09-1.03-0.25-1.64-0.49-0.62-0.25-1.18-0.61-1.7-1.09-1.2-1.12-1.81-2.62-1.81-4.49-0.14-0.9-0.2-1.88-0.21-2.97 0-1.13 0.15-2.59 0.47-4.38 0.32-1.8 0.89-3.71 1.72-5.75 0.86-2.04 1.91-3.88 3.12-5.54 2.52-3.49 5.25-5.63 8.18-6.42 0.86-0.21 1.64-0.28 2.34-0.22 0.73 0.07 1.38 0.21 1.95 0.41 1.83 0.18 3.07 2.21 3.72 6.1 0.42 2.47 0.67 5.88 0.75 10.26 0.11 4.32 0.2 7.67 0.27 10.06 0.11 2.33 0.32 4.48 0.64 6.44l-2.79-0.2c-0.13-1.33-0.23-2.5-0.29-3.52-0.07-1.03-0.14-1.98-0.21-2.86-0.16-2.05-0.36-3.84-0.59-5.37zm-0.23-11.31c-0.01-2.82-0.92-4.32-2.72-4.48-0.23-0.07-0.45-0.12-0.67-0.14-2.32-0.21-4.77 1.27-7.35 4.46-1.21 1.46-2.25 3.13-3.11 5.02-1.28 2.68-1.91 5.13-1.9 7.34 0.01 2.9 1.11 4.7 3.3 5.41 2.88 0.13 5.62-1.66 8.22-5.35 1.11-1.61 2.02-3.39 2.74-5.32 1-2.59 1.5-4.9 1.49-6.94z"/>
   <path d="m1507.5 1283.1c3.37 0.29 5.06 1.78 5.07 4.45 0.01 2.01-0.92 4.27-2.77 6.8-2.78 3.76-6.55 6.66-11.31 8.72-0.22-0.02-0.47-0.38-0.75-1.07-0.25-0.7-0.46-1.22-0.62-1.57-0.12-0.39-0.22-0.64-0.28-0.74 3.57-1.56 6.49-3.55 8.76-5.96 1.53-1.6 2.29-2.95 2.29-4.06 0-1.1-0.91-1.73-2.73-1.88s-4.5 0.3-8.03 1.36c-1.63-0.23-3.04-1.24-4.23-3.03-1.04-1.59-1.57-3.14-1.57-4.64-0.01-1.55 0.27-2.93 0.83-4.14 0.56-1.25 1.3-2.39 2.24-3.42 0.93-1.02 2.02-1.94 3.26-2.74 3.04-1.97 6.17-2.8 9.41-2.49 0.95 0.09 1.87 0.32 2.76 0.69 0.74 0.07 1.17 0.62 1.3 1.63 0.12 1.02 0.19 2.67 0.2 4.97-1.81-1.46-3.86-2.29-6.14-2.51-2.84-0.26-5.19 0.41-7.05 2.03-1.92 1.56-2.91 3.74-2.96 6.53 0 1.36 0.65 2.09 1.93 2.2l3.4-0.29c2.9-0.71 5.23-0.99 6.99-0.84z"/>
   <path d="m1530.9 1285.1c3.28 0.28 4.91 1.74 4.92 4.37 0.01 1.98-0.88 4.21-2.68 6.71-2.7 3.7-6.35 6.57-10.97 8.59-0.22-0.01-0.46-0.36-0.73-1.05-0.25-0.68-0.45-1.2-0.6-1.54-0.12-0.39-0.21-0.63-0.27-0.73 3.46-1.54 6.29-3.5 8.49-5.88 1.49-1.58 2.23-2.91 2.23-4-0.01-1.09-0.89-1.7-2.65-1.85-1.77-0.15-4.37 0.3-7.8 1.34-1.57-0.22-2.94-1.21-4.1-2.98-1.01-1.56-1.52-3.08-1.52-4.56-0.01-1.52 0.26-2.88 0.8-4.07 0.54-1.24 1.27-2.37 2.17-3.38 0.91-1.01 1.96-1.91 3.17-2.7 2.94-1.95 5.99-2.77 9.13-2.47 0.92 0.09 1.82 0.32 2.68 0.68 0.71 0.07 1.13 0.6 1.25 1.6 0.13 1 0.19 2.63 0.2 4.89-1.76-1.43-3.74-2.25-5.95-2.45-2.76-0.26-5.04 0.41-6.84 2-1.87 1.54-2.83 3.69-2.88 6.44 0.01 1.33 0.63 2.05 1.87 2.16l3.3-0.29c2.82-0.7 5.08-0.98 6.78-0.83z"/>
   <path d="m1547.6 1299.7c2.56 0.2 6.4-1.36 11.49-4.66 0.31 0.02 0.57 0.23 0.78 0.62 0.2 0.34 0.3 0.74 0.3 1.2-1.13 3.06-3.33 5.35-6.58 6.86-3.28 1.53-6.35 1.6-9.22 0.22-3.27-1.61-5.27-4.69-6-9.26-0.06-0.9-0.09-2.1-0.1-3.6 0-1.5 0.22-3.46 0.69-5.86 0.49-2.44 1.32-4.71 2.49-6.81 1.16-2.1 2.54-3.7 4.11-4.81 1.58-1.11 3.25-1.58 5.03-1.41 1.68 0.16 3.57 1.27 5.65 3.33 0.99 0.97 1.77 2.04 2.35 3.21 0.58 1.16 0.87 2.33 0.88 3.48 0 0.33-0.02 0.65-0.04 0.97-0.05 2.82-0.89 4.53-2.53 5.14-0.72 0.26-1.55 0.35-2.51 0.27l-6.27-0.96c-2.11-0.18-3.71 0.4-4.82 1.76-0.64 0.74-1.1 1.9-1.35 3.47 0.75 4.33 2.64 6.6 5.65 6.84zm7.66-20.93c-0.64-0.8-1.3-1.4-2-1.79s-1.28-0.61-1.74-0.65c-0.47-0.04-1.22 0.14-2.27 0.56-1.04 0.36-1.98 0.82-2.79 1.35-2.01 1.31-3.02 2.78-3.01 4.42 2.34 0.54 4.1 0.86 5.26 0.96 3.23 0.29 5.4 0.04 6.53-0.74 0.69-0.41 1.03-0.95 1.03-1.65-0.01-0.84-0.34-1.66-1.01-2.46z"/>
  </g>
  <path d="m6.2846 4.1897c0.52372 1.5712 0 0 0 0z" fill="none" stroke="#000" stroke-width=".26458px"/>
  <path d="m25.122 807.78c-2.105-792.02-2.105-792.02-2.105-792.02l1136.7 180.38 2.105 520.41z" fill="none" stroke="#000" stroke-width="1.0554px"/>
 </g>
</svg>
