<?xml version="1.0" standalone="no"?>
<svg xmlns:xlink="http://www.w3.org/1999/xlink" id="wave" style="transform:rotate(0deg); transition: 0.3s" viewBox="0 0 1440 150" version="1.1" xmlns="http://www.w3.org/2000/svg"><defs><linearGradient id="sw-gradient-0" x1="0" x2="0" y1="1" y2="0"><stop stop-color="rgba(61.137, 71.286, 175.626, 1)" offset="0%"/><stop stop-color="rgba(26.067, 55.507, 116.429, 1)" offset="100%"/></linearGradient></defs><path style="transform:translate(0, 0px); opacity:1" fill="url(#sw-gradient-0)" d="M0,0L26.7,2.5C53.3,5,107,10,160,27.5C213.3,45,267,75,320,72.5C373.3,70,427,35,480,17.5C533.3,0,587,0,640,5C693.3,10,747,20,800,32.5C853.3,45,907,60,960,55C1013.3,50,1067,25,1120,32.5C1173.3,40,1227,80,1280,85C1333.3,90,1387,60,1440,60C1493.3,60,1547,90,1600,95C1653.3,100,1707,80,1760,62.5C1813.3,45,1867,30,1920,22.5C1973.3,15,2027,15,2080,22.5C2133.3,30,2187,45,2240,55C2293.3,65,2347,70,2400,65C2453.3,60,2507,45,2560,45C2613.3,45,2667,60,2720,60C2773.3,60,2827,45,2880,45C2933.3,45,2987,60,3040,77.5C3093.3,95,3147,115,3200,117.5C3253.3,120,3307,105,3360,105C3413.3,105,3467,120,3520,127.5C3573.3,135,3627,135,3680,132.5C3733.3,130,3787,125,3813,122.5L3840,120L3840,150L3813.3,150C3786.7,150,3733,150,3680,150C3626.7,150,3573,150,3520,150C3466.7,150,3413,150,3360,150C3306.7,150,3253,150,3200,150C3146.7,150,3093,150,3040,150C2986.7,150,2933,150,2880,150C2826.7,150,2773,150,2720,150C2666.7,150,2613,150,2560,150C2506.7,150,2453,150,2400,150C2346.7,150,2293,150,2240,150C2186.7,150,2133,150,2080,150C2026.7,150,1973,150,1920,150C1866.7,150,1813,150,1760,150C1706.7,150,1653,150,1600,150C1546.7,150,1493,150,1440,150C1386.7,150,1333,150,1280,150C1226.7,150,1173,150,1120,150C1066.7,150,1013,150,960,150C906.7,150,853,150,800,150C746.7,150,693,150,640,150C586.7,150,533,150,480,150C426.7,150,373,150,320,150C266.7,150,213,150,160,150C106.7,150,53,150,27,150L0,150Z"/></svg>